<svg width="417" height="302" viewBox="0 0 417 302" fill="none" xmlns="http://www.w3.org/2000/svg">
<mask id="path-1-outside-1_1_49" maskUnits="userSpaceOnUse" x="6" y="71" width="396" height="145" fill="black">
<rect fill="white" x="6" y="71" width="396" height="145"/>
<path d="M25.3191 75.968H51.7611L50.1231 85.952C49.0831 88.708 46.8211 95.364 43.3371 105.92C40.5811 114.448 38.8391 121.364 38.1111 126.668L36.9411 134H22.1211L23.0571 127.838C23.4731 124.77 24.2271 121.702 25.3191 118.634C26.4111 115.514 28.3091 111.276 31.0131 105.92C36.5771 95.26 39.5151 88.89 39.8271 86.81H34.6011L33.3531 94.688H22.3551L25.3191 75.968ZM60.8328 108.338H48.9768L54.0468 75.968H80.4888L78.6948 87.434H63.7968L62.2368 97.262C64.6808 93.778 67.5408 92.036 70.8168 92.036H71.4408C73.8328 92.036 75.5748 92.894 76.6668 94.61C77.8108 96.326 78.1488 98.432 77.6808 100.928L74.2488 122.69C73.6768 126.278 72.2988 129.216 70.1148 131.504C67.9308 133.74 64.9148 134.858 61.0668 134.858H58.1028C53.4748 134.858 50.1988 133.636 48.2748 131.192C46.3508 128.748 45.6748 125.654 46.2468 121.91L47.7288 112.706H59.8188L58.4148 121.364C58.1028 122.82 58.5708 123.548 59.8188 123.548C60.8068 123.548 61.4048 122.82 61.6128 121.364L64.1868 104.984C64.4468 103.528 64.0308 102.8 62.9388 102.8C62.1068 102.8 61.5868 103.502 61.3788 104.906L60.8328 108.338ZM111.279 91.568L106.911 119.57C106.131 124.458 104.467 128.228 101.919 130.88C99.4227 133.532 96.0687 134.858 91.8567 134.858H89.4387C85.0187 134.858 81.6387 133.48 79.2987 130.724C77.0107 127.916 76.2567 124.068 77.0367 119.18L81.4047 91.568C82.2887 86.16 83.8487 82.078 86.0847 79.322C88.3727 76.566 91.8307 75.188 96.4587 75.188H98.7207C103.661 75.188 107.197 76.67 109.329 79.634C111.513 82.546 112.163 86.524 111.279 91.568ZM93.7287 120.038L98.4867 90.008C98.7987 87.98 98.2527 86.966 96.8487 86.966C96.1207 86.966 95.6007 87.2 95.2887 87.668C95.0287 88.136 94.7947 88.89 94.5867 89.93L89.8287 120.038C89.5687 121.91 90.1147 122.846 91.4667 122.846C92.6627 122.846 93.4167 121.91 93.7287 120.038ZM113.711 141.8H107.783C109.291 138.472 110.305 135.872 110.825 134H106.535L108.485 121.442H119.327L117.767 130.802C117.039 134.858 115.687 138.524 113.711 141.8ZM155.687 91.568L151.319 119.57C150.539 124.458 148.875 128.228 146.327 130.88C143.831 133.532 140.477 134.858 136.265 134.858H133.847C129.427 134.858 126.047 133.48 123.707 130.724C121.419 127.916 120.665 124.068 121.445 119.18L125.813 91.568C126.697 86.16 128.257 82.078 130.493 79.322C132.781 76.566 136.239 75.188 140.867 75.188H143.129C148.069 75.188 151.605 76.67 153.737 79.634C155.921 82.546 156.571 86.524 155.687 91.568ZM138.137 120.038L142.895 90.008C143.207 87.98 142.661 86.966 141.257 86.966C140.529 86.966 140.009 87.2 139.697 87.668C139.437 88.136 139.203 88.89 138.995 89.93L134.237 120.038C133.977 121.91 134.523 122.846 135.875 122.846C137.071 122.846 137.825 121.91 138.137 120.038ZM187.984 91.568L183.616 119.57C182.836 124.458 181.172 128.228 178.624 130.88C176.128 133.532 172.774 134.858 168.562 134.858H166.144C161.724 134.858 158.344 133.48 156.004 130.724C153.716 127.916 152.962 124.068 153.742 119.18L158.11 91.568C158.994 86.16 160.554 82.078 162.79 79.322C165.078 76.566 168.536 75.188 173.164 75.188H175.426C180.366 75.188 183.902 76.67 186.034 79.634C188.218 82.546 188.868 86.524 187.984 91.568ZM170.434 120.038L175.192 90.008C175.504 87.98 174.958 86.966 173.554 86.966C172.826 86.966 172.306 87.2 171.994 87.668C171.734 88.136 171.5 88.89 171.292 89.93L166.534 120.038C166.274 121.91 166.82 122.846 168.172 122.846C169.368 122.846 170.122 121.91 170.434 120.038ZM220.281 91.568L215.913 119.57C215.133 124.458 213.469 128.228 210.921 130.88C208.425 133.532 205.071 134.858 200.859 134.858H198.441C194.021 134.858 190.641 133.48 188.301 130.724C186.013 127.916 185.259 124.068 186.039 119.18L190.407 91.568C191.291 86.16 192.851 82.078 195.087 79.322C197.375 76.566 200.833 75.188 205.461 75.188H207.723C212.663 75.188 216.199 76.67 218.331 79.634C220.515 82.546 221.165 86.524 220.281 91.568ZM202.731 120.038L207.489 90.008C207.801 87.98 207.255 86.966 205.851 86.966C205.123 86.966 204.603 87.2 204.291 87.668C204.031 88.136 203.797 88.89 203.589 89.93L198.831 120.038C198.571 121.91 199.117 122.846 200.469 122.846C201.665 122.846 202.419 121.91 202.731 120.038ZM243.015 96.56L252.063 75.968H264.621L252.921 102.644L255.963 134H242.781L240.831 110.366L237.087 134H224.607L233.811 75.968H246.291L243.015 96.56ZM266.258 75.968H291.452L289.658 86.888L272.108 121.988H284.822L282.95 134H256.43L258.224 122.924L276.086 87.824H264.386L266.258 75.968ZM293.439 75.968H319.959L318.087 87.98H311.067L303.813 134H291.333L298.587 87.98H291.489L293.439 75.968ZM16.72 201.55L17.98 193.29H10.84L11.89 186.43H19.03L20.36 178.17H27.78L26.45 186.43H33.66L32.61 193.29H25.4L24.14 201.55H16.72ZM50.337 174.46H44.947L46.487 164.8C48.867 164.8 50.6403 164.31 51.807 163.33C52.9736 162.303 53.837 160.833 54.397 158.92H63.917L55.657 211H44.597L50.337 174.46ZM72.6407 187.97H62.0007L66.5507 158.92H90.2807L88.6707 169.21H75.3007L73.9007 178.03C76.094 174.903 78.6607 173.34 81.6007 173.34H82.1607C84.3074 173.34 85.8707 174.11 86.8507 175.65C87.8774 177.19 88.1807 179.08 87.7607 181.32L84.6807 200.85C84.1674 204.07 82.9307 206.707 80.9707 208.76C79.0107 210.767 76.304 211.77 72.8507 211.77H70.1907C66.0374 211.77 63.0974 210.673 61.3707 208.48C59.644 206.287 59.0374 203.51 59.5507 200.15L60.8807 191.89H71.7307L70.4707 199.66C70.1907 200.967 70.6107 201.62 71.7307 201.62C72.6174 201.62 73.154 200.967 73.3407 199.66L75.6507 184.96C75.884 183.653 75.5107 183 74.5307 183C73.784 183 73.3174 183.63 73.1307 184.89L72.6407 187.97ZM117.913 172.92L113.993 198.05C113.293 202.437 111.799 205.82 109.513 208.2C107.273 210.58 104.263 211.77 100.483 211.77H98.3127C94.346 211.77 91.3127 210.533 89.2127 208.06C87.1593 205.54 86.4827 202.087 87.1827 197.7L91.1027 172.92C91.896 168.067 93.296 164.403 95.3027 161.93C97.356 159.457 100.459 158.22 104.613 158.22H106.643C111.076 158.22 114.249 159.55 116.163 162.21C118.123 164.823 118.706 168.393 117.913 172.92ZM102.163 198.47L106.433 171.52C106.713 169.7 106.223 168.79 104.963 168.79C104.309 168.79 103.843 169 103.563 169.42C103.329 169.84 103.119 170.517 102.933 171.45L98.6627 198.47C98.4293 200.15 98.9193 200.99 100.133 200.99C101.206 200.99 101.883 200.15 102.163 198.47ZM151.405 206.31H147.975L147.135 211.7H136.005L136.845 206.31H133.485C129.798 206.31 127.138 205.283 125.505 203.23C123.872 201.13 123.382 198.027 124.035 193.92L126.975 174.95C128.282 166.643 132.785 162.49 140.485 162.49H143.845L144.545 158.22H155.675L154.975 162.49H158.265C165.918 162.49 169.092 166.597 167.785 174.81L164.845 193.78C164.192 197.887 162.722 201.013 160.435 203.16C158.195 205.26 155.185 206.31 151.405 206.31ZM153.785 172.29H153.435L149.585 196.3H150.005C151.032 196.3 151.778 196.067 152.245 195.6C152.758 195.133 153.108 194.34 153.295 193.22L156.095 175.44C156.282 174.367 156.212 173.573 155.885 173.06C155.605 172.547 154.905 172.29 153.785 172.29ZM138.035 196.3H138.455L142.305 172.29H141.815C140.742 172.29 139.972 172.523 139.505 172.99C139.085 173.41 138.782 174.18 138.595 175.3L135.725 193.15C135.538 194.27 135.608 195.087 135.935 195.6C136.262 196.067 136.962 196.3 138.035 196.3ZM184.691 190.91H178.391L175.241 211H164.041L172.301 158.92H187.701C194.561 158.92 197.478 162.42 196.451 169.42L194.771 180.2C193.698 187.34 190.338 190.91 184.691 190.91ZM182.101 168.02L180.001 181.32H181.541C182.241 181.32 182.731 181.157 183.011 180.83C183.338 180.457 183.571 179.803 183.711 178.87L184.971 170.61C185.251 168.883 184.738 168.02 183.431 168.02H182.101ZM210.488 158.92L206.428 184.68L216.018 158.92H226.728L218.468 211H207.758L211.818 185.31L202.228 211H191.518L199.778 158.92H210.488ZM237.999 198.61L239.609 188.32H250.739L249.059 198.96C247.846 207.5 243.553 211.77 236.179 211.77H234.149C229.529 211.77 226.309 210.533 224.489 208.06C222.669 205.54 222.063 202.157 222.669 197.91L226.939 171.31C227.639 167.063 229.016 163.82 231.069 161.58C233.123 159.34 236.249 158.22 240.449 158.22H242.479C246.959 158.22 250.063 159.34 251.789 161.58C253.563 163.82 254.146 166.783 253.539 170.47L252.209 178.87H241.079L242.409 170.82C242.503 169.933 242.433 169.28 242.199 168.86C241.966 168.44 241.499 168.23 240.799 168.23C240.099 168.23 239.609 168.44 239.329 168.86C239.049 169.233 238.839 169.887 238.699 170.82L234.219 198.82C233.986 200.5 234.546 201.34 235.899 201.34C236.553 201.34 237.019 201.13 237.299 200.71C237.579 200.29 237.813 199.59 237.999 198.61ZM248.94 211L257.2 158.92H283.17L274.91 211H263.71L270.29 169.7H266.72L260.14 211H248.94ZM296.143 158.92L292.083 184.68L301.673 158.92H312.383L304.123 211H293.413L297.473 185.31L287.883 211H277.172L285.433 158.92H296.143ZM321.484 211L324.774 190H320.854L317.494 211H306.294L314.554 158.92H325.754L322.814 177.82H326.734L329.744 158.92H340.944L332.684 211H321.484ZM355.166 168.79C354.42 168.79 353.883 169.023 353.556 169.49C353.23 169.91 352.973 170.657 352.786 171.73L348.586 198.47C348.353 200.15 348.936 200.99 350.336 200.99C351.596 200.99 352.366 200.173 352.646 198.54L356.916 171.73C357.196 169.77 356.613 168.79 355.166 168.79ZM354.606 158.22H356.636C361.163 158.22 364.43 159.55 366.436 162.21C368.49 164.823 369.166 168.393 368.466 172.92L364.546 197.56C363.006 207.033 358.503 211.77 351.036 211.77H348.936C344.503 211.77 341.236 210.51 339.136 207.99C337.083 205.47 336.406 201.877 337.106 197.21L340.956 172.92C341.656 168.113 343.056 164.473 345.156 162C347.256 159.48 350.406 158.22 354.606 158.22ZM364.471 211L372.731 158.92H388.901C391.981 158.92 394.267 159.737 395.761 161.37C397.254 163.003 397.721 165.453 397.161 168.72L396.251 174.18C395.924 176.607 395.177 178.497 394.011 179.85C392.844 181.157 391.584 181.973 390.231 182.3C393.824 183.653 395.271 186.617 394.571 191.19L393.381 198.96C392.681 203.16 391.561 206.217 390.021 208.13C388.481 210.043 386.194 211 383.161 211H364.471ZM381.061 188.04H379.311L377.141 201.76H379.241C379.987 201.76 380.524 201.597 380.851 201.27C381.177 200.897 381.434 200.173 381.621 199.1L382.881 190.91C383.161 188.997 382.554 188.04 381.061 188.04ZM384.071 167.81H382.531L380.781 179.01H382.531C383.744 179.01 384.491 178.147 384.771 176.42L385.751 170.19C385.984 168.603 385.424 167.81 384.071 167.81Z"/>
</mask>
<path d="M25.3191 75.968H51.7611L50.1231 85.952C49.0831 88.708 46.8211 95.364 43.3371 105.92C40.5811 114.448 38.8391 121.364 38.1111 126.668L36.9411 134H22.1211L23.0571 127.838C23.4731 124.77 24.2271 121.702 25.3191 118.634C26.4111 115.514 28.3091 111.276 31.0131 105.92C36.5771 95.26 39.5151 88.89 39.8271 86.81H34.6011L33.3531 94.688H22.3551L25.3191 75.968ZM60.8328 108.338H48.9768L54.0468 75.968H80.4888L78.6948 87.434H63.7968L62.2368 97.262C64.6808 93.778 67.5408 92.036 70.8168 92.036H71.4408C73.8328 92.036 75.5748 92.894 76.6668 94.61C77.8108 96.326 78.1488 98.432 77.6808 100.928L74.2488 122.69C73.6768 126.278 72.2988 129.216 70.1148 131.504C67.9308 133.74 64.9148 134.858 61.0668 134.858H58.1028C53.4748 134.858 50.1988 133.636 48.2748 131.192C46.3508 128.748 45.6748 125.654 46.2468 121.91L47.7288 112.706H59.8188L58.4148 121.364C58.1028 122.82 58.5708 123.548 59.8188 123.548C60.8068 123.548 61.4048 122.82 61.6128 121.364L64.1868 104.984C64.4468 103.528 64.0308 102.8 62.9388 102.8C62.1068 102.8 61.5868 103.502 61.3788 104.906L60.8328 108.338ZM111.279 91.568L106.911 119.57C106.131 124.458 104.467 128.228 101.919 130.88C99.4227 133.532 96.0687 134.858 91.8567 134.858H89.4387C85.0187 134.858 81.6387 133.48 79.2987 130.724C77.0107 127.916 76.2567 124.068 77.0367 119.18L81.4047 91.568C82.2887 86.16 83.8487 82.078 86.0847 79.322C88.3727 76.566 91.8307 75.188 96.4587 75.188H98.7207C103.661 75.188 107.197 76.67 109.329 79.634C111.513 82.546 112.163 86.524 111.279 91.568ZM93.7287 120.038L98.4867 90.008C98.7987 87.98 98.2527 86.966 96.8487 86.966C96.1207 86.966 95.6007 87.2 95.2887 87.668C95.0287 88.136 94.7947 88.89 94.5867 89.93L89.8287 120.038C89.5687 121.91 90.1147 122.846 91.4667 122.846C92.6627 122.846 93.4167 121.91 93.7287 120.038ZM113.711 141.8H107.783C109.291 138.472 110.305 135.872 110.825 134H106.535L108.485 121.442H119.327L117.767 130.802C117.039 134.858 115.687 138.524 113.711 141.8ZM155.687 91.568L151.319 119.57C150.539 124.458 148.875 128.228 146.327 130.88C143.831 133.532 140.477 134.858 136.265 134.858H133.847C129.427 134.858 126.047 133.48 123.707 130.724C121.419 127.916 120.665 124.068 121.445 119.18L125.813 91.568C126.697 86.16 128.257 82.078 130.493 79.322C132.781 76.566 136.239 75.188 140.867 75.188H143.129C148.069 75.188 151.605 76.67 153.737 79.634C155.921 82.546 156.571 86.524 155.687 91.568ZM138.137 120.038L142.895 90.008C143.207 87.98 142.661 86.966 141.257 86.966C140.529 86.966 140.009 87.2 139.697 87.668C139.437 88.136 139.203 88.89 138.995 89.93L134.237 120.038C133.977 121.91 134.523 122.846 135.875 122.846C137.071 122.846 137.825 121.91 138.137 120.038ZM187.984 91.568L183.616 119.57C182.836 124.458 181.172 128.228 178.624 130.88C176.128 133.532 172.774 134.858 168.562 134.858H166.144C161.724 134.858 158.344 133.48 156.004 130.724C153.716 127.916 152.962 124.068 153.742 119.18L158.11 91.568C158.994 86.16 160.554 82.078 162.79 79.322C165.078 76.566 168.536 75.188 173.164 75.188H175.426C180.366 75.188 183.902 76.67 186.034 79.634C188.218 82.546 188.868 86.524 187.984 91.568ZM170.434 120.038L175.192 90.008C175.504 87.98 174.958 86.966 173.554 86.966C172.826 86.966 172.306 87.2 171.994 87.668C171.734 88.136 171.5 88.89 171.292 89.93L166.534 120.038C166.274 121.91 166.82 122.846 168.172 122.846C169.368 122.846 170.122 121.91 170.434 120.038ZM220.281 91.568L215.913 119.57C215.133 124.458 213.469 128.228 210.921 130.88C208.425 133.532 205.071 134.858 200.859 134.858H198.441C194.021 134.858 190.641 133.48 188.301 130.724C186.013 127.916 185.259 124.068 186.039 119.18L190.407 91.568C191.291 86.16 192.851 82.078 195.087 79.322C197.375 76.566 200.833 75.188 205.461 75.188H207.723C212.663 75.188 216.199 76.67 218.331 79.634C220.515 82.546 221.165 86.524 220.281 91.568ZM202.731 120.038L207.489 90.008C207.801 87.98 207.255 86.966 205.851 86.966C205.123 86.966 204.603 87.2 204.291 87.668C204.031 88.136 203.797 88.89 203.589 89.93L198.831 120.038C198.571 121.91 199.117 122.846 200.469 122.846C201.665 122.846 202.419 121.91 202.731 120.038ZM243.015 96.56L252.063 75.968H264.621L252.921 102.644L255.963 134H242.781L240.831 110.366L237.087 134H224.607L233.811 75.968H246.291L243.015 96.56ZM266.258 75.968H291.452L289.658 86.888L272.108 121.988H284.822L282.95 134H256.43L258.224 122.924L276.086 87.824H264.386L266.258 75.968ZM293.439 75.968H319.959L318.087 87.98H311.067L303.813 134H291.333L298.587 87.98H291.489L293.439 75.968ZM16.72 201.55L17.98 193.29H10.84L11.89 186.43H19.03L20.36 178.17H27.78L26.45 186.43H33.66L32.61 193.29H25.4L24.14 201.55H16.72ZM50.337 174.46H44.947L46.487 164.8C48.867 164.8 50.6403 164.31 51.807 163.33C52.9736 162.303 53.837 160.833 54.397 158.92H63.917L55.657 211H44.597L50.337 174.46ZM72.6407 187.97H62.0007L66.5507 158.92H90.2807L88.6707 169.21H75.3007L73.9007 178.03C76.094 174.903 78.6607 173.34 81.6007 173.34H82.1607C84.3074 173.34 85.8707 174.11 86.8507 175.65C87.8774 177.19 88.1807 179.08 87.7607 181.32L84.6807 200.85C84.1674 204.07 82.9307 206.707 80.9707 208.76C79.0107 210.767 76.304 211.77 72.8507 211.77H70.1907C66.0374 211.77 63.0974 210.673 61.3707 208.48C59.644 206.287 59.0374 203.51 59.5507 200.15L60.8807 191.89H71.7307L70.4707 199.66C70.1907 200.967 70.6107 201.62 71.7307 201.62C72.6174 201.62 73.154 200.967 73.3407 199.66L75.6507 184.96C75.884 183.653 75.5107 183 74.5307 183C73.784 183 73.3174 183.63 73.1307 184.89L72.6407 187.97ZM117.913 172.92L113.993 198.05C113.293 202.437 111.799 205.82 109.513 208.2C107.273 210.58 104.263 211.77 100.483 211.77H98.3127C94.346 211.77 91.3127 210.533 89.2127 208.06C87.1593 205.54 86.4827 202.087 87.1827 197.7L91.1027 172.92C91.896 168.067 93.296 164.403 95.3027 161.93C97.356 159.457 100.459 158.22 104.613 158.22H106.643C111.076 158.22 114.249 159.55 116.163 162.21C118.123 164.823 118.706 168.393 117.913 172.92ZM102.163 198.47L106.433 171.52C106.713 169.7 106.223 168.79 104.963 168.79C104.309 168.79 103.843 169 103.563 169.42C103.329 169.84 103.119 170.517 102.933 171.45L98.6627 198.47C98.4293 200.15 98.9193 200.99 100.133 200.99C101.206 200.99 101.883 200.15 102.163 198.47ZM151.405 206.31H147.975L147.135 211.7H136.005L136.845 206.31H133.485C129.798 206.31 127.138 205.283 125.505 203.23C123.872 201.13 123.382 198.027 124.035 193.92L126.975 174.95C128.282 166.643 132.785 162.49 140.485 162.49H143.845L144.545 158.22H155.675L154.975 162.49H158.265C165.918 162.49 169.092 166.597 167.785 174.81L164.845 193.78C164.192 197.887 162.722 201.013 160.435 203.16C158.195 205.26 155.185 206.31 151.405 206.31ZM153.785 172.29H153.435L149.585 196.3H150.005C151.032 196.3 151.778 196.067 152.245 195.6C152.758 195.133 153.108 194.34 153.295 193.22L156.095 175.44C156.282 174.367 156.212 173.573 155.885 173.06C155.605 172.547 154.905 172.29 153.785 172.29ZM138.035 196.3H138.455L142.305 172.29H141.815C140.742 172.29 139.972 172.523 139.505 172.99C139.085 173.41 138.782 174.18 138.595 175.3L135.725 193.15C135.538 194.27 135.608 195.087 135.935 195.6C136.262 196.067 136.962 196.3 138.035 196.3ZM184.691 190.91H178.391L175.241 211H164.041L172.301 158.92H187.701C194.561 158.92 197.478 162.42 196.451 169.42L194.771 180.2C193.698 187.34 190.338 190.91 184.691 190.91ZM182.101 168.02L180.001 181.32H181.541C182.241 181.32 182.731 181.157 183.011 180.83C183.338 180.457 183.571 179.803 183.711 178.87L184.971 170.61C185.251 168.883 184.738 168.02 183.431 168.02H182.101ZM210.488 158.92L206.428 184.68L216.018 158.92H226.728L218.468 211H207.758L211.818 185.31L202.228 211H191.518L199.778 158.92H210.488ZM237.999 198.61L239.609 188.32H250.739L249.059 198.96C247.846 207.5 243.553 211.77 236.179 211.77H234.149C229.529 211.77 226.309 210.533 224.489 208.06C222.669 205.54 222.063 202.157 222.669 197.91L226.939 171.31C227.639 167.063 229.016 163.82 231.069 161.58C233.123 159.34 236.249 158.22 240.449 158.22H242.479C246.959 158.22 250.063 159.34 251.789 161.58C253.563 163.82 254.146 166.783 253.539 170.47L252.209 178.87H241.079L242.409 170.82C242.503 169.933 242.433 169.28 242.199 168.86C241.966 168.44 241.499 168.23 240.799 168.23C240.099 168.23 239.609 168.44 239.329 168.86C239.049 169.233 238.839 169.887 238.699 170.82L234.219 198.82C233.986 200.5 234.546 201.34 235.899 201.34C236.553 201.34 237.019 201.13 237.299 200.71C237.579 200.29 237.813 199.59 237.999 198.61ZM248.94 211L257.2 158.92H283.17L274.91 211H263.71L270.29 169.7H266.72L260.14 211H248.94ZM296.143 158.92L292.083 184.68L301.673 158.92H312.383L304.123 211H293.413L297.473 185.31L287.883 211H277.172L285.433 158.92H296.143ZM321.484 211L324.774 190H320.854L317.494 211H306.294L314.554 158.92H325.754L322.814 177.82H326.734L329.744 158.92H340.944L332.684 211H321.484ZM355.166 168.79C354.42 168.79 353.883 169.023 353.556 169.49C353.23 169.91 352.973 170.657 352.786 171.73L348.586 198.47C348.353 200.15 348.936 200.99 350.336 200.99C351.596 200.99 352.366 200.173 352.646 198.54L356.916 171.73C357.196 169.77 356.613 168.79 355.166 168.79ZM354.606 158.22H356.636C361.163 158.22 364.43 159.55 366.436 162.21C368.49 164.823 369.166 168.393 368.466 172.92L364.546 197.56C363.006 207.033 358.503 211.77 351.036 211.77H348.936C344.503 211.77 341.236 210.51 339.136 207.99C337.083 205.47 336.406 201.877 337.106 197.21L340.956 172.92C341.656 168.113 343.056 164.473 345.156 162C347.256 159.48 350.406 158.22 354.606 158.22ZM364.471 211L372.731 158.92H388.901C391.981 158.92 394.267 159.737 395.761 161.37C397.254 163.003 397.721 165.453 397.161 168.72L396.251 174.18C395.924 176.607 395.177 178.497 394.011 179.85C392.844 181.157 391.584 181.973 390.231 182.3C393.824 183.653 395.271 186.617 394.571 191.19L393.381 198.96C392.681 203.16 391.561 206.217 390.021 208.13C388.481 210.043 386.194 211 383.161 211H364.471ZM381.061 188.04H379.311L377.141 201.76H379.241C379.987 201.76 380.524 201.597 380.851 201.27C381.177 200.897 381.434 200.173 381.621 199.1L382.881 190.91C383.161 188.997 382.554 188.04 381.061 188.04ZM384.071 167.81H382.531L380.781 179.01H382.531C383.744 179.01 384.491 178.147 384.771 176.42L385.751 170.19C385.984 168.603 385.424 167.81 384.071 167.81Z" fill="url(#paint0_linear_1_49)"/>
<path d="M25.3191 75.968V71.968H21.9026L21.3683 75.3425L25.3191 75.968ZM51.7611 75.968L55.7083 76.6156L56.4708 71.968H51.7611V75.968ZM50.1231 85.952L53.8655 87.3642L54.0059 86.9921L54.0703 86.5996L50.1231 85.952ZM43.3371 105.92L39.5386 104.666L39.5347 104.678L39.5309 104.69L43.3371 105.92ZM38.1111 126.668L42.0611 127.298L42.068 127.255L42.0739 127.212L38.1111 126.668ZM36.9411 134V138H40.3534L40.8911 134.63L36.9411 134ZM22.1211 134L18.1664 133.399L17.4676 138H22.1211V134ZM23.0571 127.838L27.0117 128.439L27.0165 128.407L27.0208 128.375L23.0571 127.838ZM25.3191 118.634L29.0875 119.975L29.091 119.965L29.0945 119.955L25.3191 118.634ZM31.0131 105.92L27.467 104.069L27.4545 104.093L27.4423 104.117L31.0131 105.92ZM39.8271 86.81L43.7828 87.4034L44.4718 82.81H39.8271V86.81ZM34.6011 86.81V82.81H31.1849L30.6503 86.1841L34.6011 86.81ZM33.3531 94.688V98.688H36.7693L37.3038 95.3139L33.3531 94.688ZM22.3551 94.688L18.4043 94.0625L17.6719 98.688H22.3551V94.688ZM25.3191 79.968H51.7611V71.968H25.3191V79.968ZM47.8138 75.3204L46.1758 85.3044L54.0703 86.5996L55.7083 76.6156L47.8138 75.3204ZM46.3807 84.5398C45.3046 87.3915 43.0138 94.1369 39.5386 104.666L47.1355 107.174C50.6283 96.5911 52.8616 90.0245 53.8655 87.3642L46.3807 84.5398ZM39.5309 104.69C36.7439 113.314 34.9224 120.484 34.1482 126.124L42.0739 127.212C42.7558 122.244 44.4183 115.582 47.1433 107.15L39.5309 104.69ZM34.1611 126.038L32.9911 133.37L40.8911 134.63L42.0611 127.298L34.1611 126.038ZM36.9411 130H22.1211V138H36.9411V130ZM26.0757 134.601L27.0117 128.439L19.1024 127.237L18.1664 133.399L26.0757 134.601ZM27.0208 128.375C27.3978 125.595 28.0834 122.796 29.0875 119.975L21.5507 117.293C20.3707 120.608 19.5484 123.945 19.0934 127.301L27.0208 128.375ZM29.0945 119.955C30.1002 117.082 31.9062 113.027 34.5838 107.723L27.4423 104.117C24.712 109.525 22.7219 113.946 21.5436 117.313L29.0945 119.955ZM34.5591 107.771C37.3533 102.417 39.5131 98.0941 41.0219 94.8228C41.7753 93.1892 42.3848 91.7785 42.8341 90.6103C43.2538 89.5192 43.6356 88.385 43.7828 87.4034L35.8713 86.2166C35.8735 86.2021 35.8548 86.3187 35.7634 86.6164C35.6772 86.8969 35.5486 87.2672 35.3673 87.7385C35.0041 88.6827 34.4729 89.9208 33.7573 91.4722C32.3281 94.5709 30.2369 98.7625 27.467 104.069L34.5591 107.771ZM39.8271 82.81H34.6011V90.81H39.8271V82.81ZM30.6503 86.1841L29.4023 94.0621L37.3038 95.3139L38.5518 87.4359L30.6503 86.1841ZM33.3531 90.688H22.3551V98.688H33.3531V90.688ZM26.3059 95.3135L29.2699 76.5935L21.3683 75.3425L18.4043 94.0625L26.3059 95.3135ZM60.8328 108.338V112.338H64.2468L64.7832 108.966L60.8328 108.338ZM48.9768 108.338L45.025 107.719L44.3016 112.338H48.9768V108.338ZM54.0468 75.968V71.968H50.6246L50.095 75.349L54.0468 75.968ZM80.4888 75.968L84.4408 76.5863L85.1634 71.968H80.4888V75.968ZM78.6948 87.434V91.434H82.1177L82.6468 88.0523L78.6948 87.434ZM63.7968 87.434V83.434H60.3817L59.8463 86.8069L63.7968 87.434ZM62.2368 97.262L58.2863 96.6349L65.5115 99.5591L62.2368 97.262ZM76.6668 94.61L73.2922 96.7575L73.315 96.7934L73.3386 96.8288L76.6668 94.61ZM77.6808 100.928L73.7494 100.191L73.7387 100.248L73.7297 100.305L77.6808 100.928ZM74.2488 122.69L78.199 123.32L78.2 123.313L74.2488 122.69ZM70.1148 131.504L72.9763 134.299L72.9924 134.283L73.0083 134.266L70.1148 131.504ZM48.2748 131.192L51.4178 128.718L48.2748 131.192ZM46.2468 121.91L42.2977 121.274L42.2952 121.29L42.2927 121.306L46.2468 121.91ZM47.7288 112.706V108.706H44.3214L43.7797 112.07L47.7288 112.706ZM59.8188 112.706L63.7673 113.346L64.5197 108.706H59.8188V112.706ZM58.4148 121.364L62.3261 122.202L62.3471 122.104L62.3633 122.004L58.4148 121.364ZM61.6128 121.364L57.6613 120.743L57.657 120.771L57.653 120.798L61.6128 121.364ZM64.1868 104.984L60.2491 104.281L60.2418 104.322L60.2353 104.363L64.1868 104.984ZM61.3788 104.906L65.3292 105.534L65.3325 105.513L65.3357 105.492L61.3788 104.906ZM60.8328 104.338H48.9768V112.338H60.8328V104.338ZM52.9287 108.957L57.9987 76.587L50.095 75.349L45.025 107.719L52.9287 108.957ZM54.0468 79.968H80.4888V71.968H54.0468V79.968ZM76.5369 75.3497L74.7429 86.8157L82.6468 88.0523L84.4408 76.5863L76.5369 75.3497ZM78.6948 83.434H63.7968V91.434H78.6948V83.434ZM59.8463 86.8069L58.2863 96.6349L66.1874 97.8891L67.7474 88.0611L59.8463 86.8069ZM65.5115 99.5591C67.4548 96.7888 69.224 96.036 70.8168 96.036V88.036C65.8576 88.036 61.9069 90.7672 58.9622 94.9649L65.5115 99.5591ZM70.8168 96.036H71.4408V88.036H70.8168V96.036ZM71.4408 96.036C72.746 96.036 73.0735 96.4138 73.2922 96.7575L80.0415 92.4625C78.0762 89.3742 74.9197 88.036 71.4408 88.036V96.036ZM73.3386 96.8288C73.7757 97.4844 74.072 98.47 73.7494 100.191L81.6123 101.665C82.2257 98.394 81.846 95.1676 79.995 92.3912L73.3386 96.8288ZM73.7297 100.305L70.2977 122.067L78.2 123.313L81.632 101.551L73.7297 100.305ZM70.2987 122.06C69.8349 124.97 68.7648 127.125 67.2214 128.742L73.0083 134.266C75.8329 131.307 77.5188 127.586 78.199 123.32L70.2987 122.06ZM67.2533 128.709C65.9891 130.003 64.1029 130.858 61.0668 130.858V138.858C65.7268 138.858 69.8726 137.477 72.9763 134.299L67.2533 128.709ZM61.0668 130.858H58.1028V138.858H61.0668V130.858ZM58.1028 130.858C54.0841 130.858 52.2698 129.8 51.4178 128.718L45.1319 133.666C48.1279 137.472 52.8655 138.858 58.1028 138.858V130.858ZM51.4178 128.718C50.3239 127.328 49.757 125.42 50.201 122.514L42.2927 121.306C41.5927 125.888 42.3778 130.168 45.1319 133.666L51.4178 128.718ZM50.196 122.546L51.678 113.342L43.7797 112.07L42.2977 121.274L50.196 122.546ZM47.7288 116.706H59.8188V108.706H47.7288V116.706ZM55.8704 112.066L54.4664 120.724L62.3633 122.004L63.7673 113.346L55.8704 112.066ZM54.5036 120.526C54.2748 121.594 54.0676 123.455 55.1671 125.165C56.4311 127.131 58.4853 127.548 59.8188 127.548V119.548C59.9044 119.548 61.1006 119.601 61.8966 120.839C62.5281 121.821 62.2429 122.59 62.3261 122.202L54.5036 120.526ZM59.8188 127.548C61.4428 127.548 62.9989 126.881 64.0992 125.541C65.0546 124.378 65.4183 123.01 65.5726 121.93L57.653 120.798C57.5994 121.174 57.56 120.898 57.9174 120.463C58.1215 120.215 58.4222 119.958 58.818 119.776C59.2085 119.597 59.5662 119.548 59.8188 119.548V127.548ZM65.5644 121.985L68.1384 105.605L60.2353 104.363L57.6613 120.743L65.5644 121.985ZM68.1246 105.687C68.3061 104.67 68.4579 102.963 67.5428 101.361C66.4054 99.371 64.421 98.8 62.9388 98.8V106.8C62.7857 106.8 62.3849 106.777 61.8921 106.539C61.3513 106.278 60.8934 105.85 60.5969 105.331C60.3269 104.858 60.2759 104.463 60.2653 104.313C60.2546 104.164 60.2748 104.137 60.2491 104.281L68.1246 105.687ZM62.9388 98.8C61.1829 98.8 59.6808 99.6358 58.7106 100.946C57.888 102.056 57.5687 103.329 57.422 104.32L65.3357 105.492C65.3969 105.079 65.4417 105.299 65.1391 105.707C64.9602 105.949 64.6618 106.25 64.2166 106.482C63.7649 106.716 63.312 106.8 62.9388 106.8V98.8ZM57.4285 104.278L56.8825 107.71L64.7832 108.966L65.3292 105.534L57.4285 104.278ZM111.279 91.568L107.339 90.8775L107.332 90.9144L107.327 90.9515L111.279 91.568ZM106.911 119.57L110.861 120.2L110.863 120.187L106.911 119.57ZM101.919 130.88L99.0343 128.109L99.0201 128.124L99.0059 128.139L101.919 130.88ZM79.2987 130.724L76.1978 133.251L76.2234 133.282L76.2496 133.313L79.2987 130.724ZM77.0367 119.18L80.9868 119.81L80.9876 119.805L77.0367 119.18ZM81.4047 91.568L77.4571 90.9227L77.4555 90.9329L77.4539 90.943L81.4047 91.568ZM86.0847 79.322L83.0071 76.767L82.9927 76.7843L82.9785 76.8018L86.0847 79.322ZM109.329 79.634L106.082 81.9697L106.105 82.0021L106.129 82.034L109.329 79.634ZM93.7287 120.038L97.6743 120.696L97.6769 120.68L97.6795 120.664L93.7287 120.038ZM98.4867 90.008L102.437 90.634L102.439 90.6251L102.44 90.6162L98.4867 90.008ZM95.2887 87.668L91.9605 85.4492L91.8707 85.5839L91.7921 85.7254L95.2887 87.668ZM94.5867 89.93L90.6644 89.1455L90.6485 89.2253L90.6358 89.3056L94.5867 89.93ZM89.8287 120.038L85.8778 119.414L85.8719 119.451L85.8668 119.488L89.8287 120.038ZM107.327 90.9515L102.959 118.953L110.863 120.187L115.231 92.1845L107.327 90.9515ZM102.961 118.94C102.266 123.295 100.852 126.217 99.0343 128.109L104.803 133.651C108.082 130.239 109.996 125.621 110.861 120.2L102.961 118.94ZM99.0059 128.139C97.3861 129.86 95.1546 130.858 91.8567 130.858V138.858C96.9829 138.858 101.459 137.204 104.832 133.621L99.0059 128.139ZM91.8567 130.858H89.4387V138.858H91.8567V130.858ZM89.4387 130.858C85.9073 130.858 83.7607 129.799 82.3479 128.135L76.2496 133.313C79.5168 137.161 84.1301 138.858 89.4387 138.858V130.858ZM82.3997 128.197C81.0671 126.562 80.3177 124.003 80.9868 119.81L73.0867 118.55C72.1958 124.133 72.9544 129.27 76.1978 133.251L82.3997 128.197ZM80.9876 119.805L85.3556 92.193L77.4539 90.943L73.0859 118.555L80.9876 119.805ZM85.3523 92.2133C86.1799 87.1508 87.5702 83.8399 89.191 81.8422L82.9785 76.8018C80.1273 80.3161 78.3976 85.1692 77.4571 90.9227L85.3523 92.2133ZM89.1624 81.877C90.48 80.2899 92.6462 79.188 96.4587 79.188V71.188C91.0152 71.188 86.2655 72.8421 83.0071 76.767L89.1624 81.877ZM96.4587 79.188H98.7207V71.188H96.4587V79.188ZM98.7207 79.188C102.867 79.188 104.949 80.3957 106.082 81.9697L112.576 77.2983C109.444 72.9443 104.454 71.188 98.7207 71.188V79.188ZM106.129 82.034C107.417 83.7516 108.111 86.4687 107.339 90.8775L115.219 92.2585C116.214 86.5793 115.609 81.3404 112.529 77.234L106.129 82.034ZM97.6795 120.664L102.437 90.634L94.536 89.382L89.778 119.412L97.6795 120.664ZM102.44 90.6162C102.637 89.3368 102.733 87.502 101.833 85.8301C100.698 83.7213 98.6385 82.966 96.8487 82.966V90.966C96.7308 90.966 96.3579 90.9455 95.8954 90.705C95.392 90.4432 95.014 90.0401 94.7894 89.6229C94.5902 89.253 94.572 88.9885 94.5716 88.9839C94.5709 88.9748 94.5795 89.0989 94.5332 89.3998L102.44 90.6162ZM96.8487 82.966C95.2242 82.966 93.2295 83.5458 91.9605 85.4492L98.6169 89.8868C98.35 90.2871 97.9695 90.6023 97.5542 90.7892C97.1763 90.9592 96.8998 90.966 96.8487 90.966V82.966ZM91.7921 85.7254C91.2188 86.7574 90.8903 88.016 90.6644 89.1455L98.5091 90.7145C98.5945 90.2872 98.6736 89.9793 98.7385 89.7701C98.8085 89.5445 98.8357 89.52 98.7854 89.6106L91.7921 85.7254ZM90.6358 89.3056L85.8778 119.414L93.7797 120.662L98.5377 90.5544L90.6358 89.3056ZM85.8668 119.488C85.6958 120.719 85.6338 122.524 86.5881 124.159C87.7629 126.173 89.7779 126.846 91.4667 126.846V118.846C91.5772 118.846 91.9289 118.864 92.373 119.083C92.8576 119.322 93.2494 119.702 93.4984 120.129C93.7226 120.513 93.7589 120.809 93.7643 120.861C93.7697 120.915 93.7559 120.839 93.7907 120.588L85.8668 119.488ZM91.4667 126.846C93.2821 126.846 94.9123 126.058 96.0443 124.653C97.0332 123.426 97.4645 121.954 97.6743 120.696L89.7832 119.38C89.7378 119.653 89.6912 119.797 89.6723 119.847C89.6529 119.898 89.682 119.799 89.8142 119.635C89.9576 119.457 90.1991 119.233 90.5499 119.064C90.9014 118.896 91.2307 118.846 91.4667 118.846V126.846ZM113.711 141.8V145.8H115.969L117.136 143.866L113.711 141.8ZM107.783 141.8L104.139 140.149L101.579 145.8H107.783V141.8ZM110.825 134L114.679 135.071L116.087 130H110.825V134ZM106.535 134L102.582 133.386L101.866 138H106.535V134ZM108.485 121.442V117.442H105.058L104.532 120.828L108.485 121.442ZM119.327 121.442L123.272 122.1L124.049 117.442H119.327V121.442ZM117.767 130.802L121.704 131.509L121.708 131.484L121.712 131.46L117.767 130.802ZM113.711 137.8H107.783V145.8H113.711V137.8ZM111.426 143.451C112.959 140.068 114.075 137.244 114.679 135.071L106.971 132.929C106.535 134.5 105.622 136.876 104.139 140.149L111.426 143.451ZM110.825 130H106.535V138H110.825V130ZM110.487 134.614L112.437 122.056L104.532 120.828L102.582 133.386L110.487 134.614ZM108.485 125.442H119.327V117.442H108.485V125.442ZM115.381 120.784L113.821 130.144L121.712 131.46L123.272 122.1L115.381 120.784ZM113.83 130.095C113.181 133.708 111.991 136.907 110.286 139.734L117.136 143.866C119.383 140.141 120.896 136.008 121.704 131.509L113.83 130.095ZM155.687 91.568L151.747 90.8775L151.741 90.9144L151.735 90.9515L155.687 91.568ZM151.319 119.57L155.269 120.2L155.271 120.187L151.319 119.57ZM146.327 130.88L143.443 128.109L143.428 128.124L143.414 128.139L146.327 130.88ZM123.707 130.724L120.606 133.251L120.632 133.282L120.658 133.313L123.707 130.724ZM121.445 119.18L125.395 119.81L125.396 119.805L121.445 119.18ZM125.813 91.568L121.865 90.9227L121.864 90.9329L121.862 90.943L125.813 91.568ZM130.493 79.322L127.415 76.767L127.401 76.7843L127.387 76.8018L130.493 79.322ZM153.737 79.634L150.49 81.9697L150.513 82.0021L150.537 82.034L153.737 79.634ZM138.137 120.038L142.083 120.696L142.085 120.68L142.088 120.664L138.137 120.038ZM142.895 90.008L146.846 90.634L146.847 90.6251L146.848 90.6162L142.895 90.008ZM139.697 87.668L136.369 85.4492L136.279 85.5839L136.2 85.7254L139.697 87.668ZM138.995 89.93L135.073 89.1455L135.057 89.2253L135.044 89.3056L138.995 89.93ZM134.237 120.038L130.286 119.414L130.28 119.451L130.275 119.488L134.237 120.038ZM151.735 90.9515L147.367 118.953L155.271 120.187L159.639 92.1845L151.735 90.9515ZM147.369 118.94C146.674 123.295 145.26 126.217 143.443 128.109L149.211 133.651C152.49 130.239 154.404 125.621 155.269 120.2L147.369 118.94ZM143.414 128.139C141.794 129.86 139.563 130.858 136.265 130.858V138.858C141.391 138.858 145.868 137.204 149.24 133.621L143.414 128.139ZM136.265 130.858H133.847V138.858H136.265V130.858ZM133.847 130.858C130.316 130.858 128.169 129.799 126.756 128.135L120.658 133.313C123.925 137.161 128.538 138.858 133.847 138.858V130.858ZM126.808 128.197C125.475 126.562 124.726 124.003 125.395 119.81L117.495 118.55C116.604 124.133 117.363 129.27 120.606 133.251L126.808 128.197ZM125.396 119.805L129.764 92.193L121.862 90.943L117.494 118.555L125.396 119.805ZM129.761 92.2133C130.588 87.1508 131.978 83.8399 133.599 81.8422L127.387 76.8018C124.536 80.3161 122.806 85.1692 121.865 90.9227L129.761 92.2133ZM133.571 81.877C134.888 80.2899 137.054 79.188 140.867 79.188V71.188C135.423 71.188 130.674 72.8421 127.415 76.767L133.571 81.877ZM140.867 79.188H143.129V71.188H140.867V79.188ZM143.129 79.188C147.276 79.188 149.358 80.3957 150.49 81.9697L156.984 77.2983C153.852 72.9443 148.862 71.188 143.129 71.188V79.188ZM150.537 82.034C151.825 83.7516 152.52 86.4687 151.747 90.8775L159.627 92.2585C160.622 86.5793 160.017 81.3404 156.937 77.234L150.537 82.034ZM142.088 120.664L146.846 90.634L138.944 89.382L134.186 119.412L142.088 120.664ZM146.848 90.6162C147.045 89.3368 147.142 87.502 146.241 85.8301C145.106 83.7213 143.047 82.966 141.257 82.966V90.966C141.139 90.966 140.766 90.9455 140.304 90.705C139.8 90.4432 139.422 90.0401 139.198 89.6229C138.998 89.253 138.98 88.9885 138.98 88.9839C138.979 88.9748 138.988 89.0989 138.941 89.3998L146.848 90.6162ZM141.257 82.966C139.632 82.966 137.638 83.5458 136.369 85.4492L143.025 89.8868C142.758 90.2871 142.378 90.6023 141.962 90.7892C141.584 90.9592 141.308 90.966 141.257 90.966V82.966ZM136.2 85.7254C135.627 86.7574 135.299 88.016 135.073 89.1455L142.917 90.7145C143.003 90.2872 143.082 89.9793 143.147 89.7701C143.217 89.5445 143.244 89.52 143.194 89.6106L136.2 85.7254ZM135.044 89.3056L130.286 119.414L138.188 120.662L142.946 90.5544L135.044 89.3056ZM130.275 119.488C130.104 120.719 130.042 122.524 130.996 124.159C132.171 126.173 134.186 126.846 135.875 126.846V118.846C135.985 118.846 136.337 118.864 136.781 119.083C137.266 119.322 137.658 119.702 137.907 120.129C138.131 120.513 138.167 120.809 138.172 120.861C138.178 120.915 138.164 120.839 138.199 120.588L130.275 119.488ZM135.875 126.846C137.69 126.846 139.321 126.058 140.452 124.653C141.441 123.426 141.873 121.954 142.083 120.696L134.191 119.38C134.146 119.653 134.099 119.797 134.08 119.847C134.061 119.898 134.09 119.799 134.222 119.635C134.366 119.457 134.607 119.233 134.958 119.064C135.31 118.896 135.639 118.846 135.875 118.846V126.846ZM187.984 91.568L184.044 90.8775L184.037 90.9144L184.032 90.9515L187.984 91.568ZM183.616 119.57L187.566 120.2L187.568 120.187L183.616 119.57ZM178.624 130.88L175.739 128.109L175.725 128.124L175.711 128.139L178.624 130.88ZM156.004 130.724L152.903 133.251L152.928 133.282L152.955 133.313L156.004 130.724ZM153.742 119.18L157.692 119.81L157.693 119.805L153.742 119.18ZM158.11 91.568L154.162 90.9227L154.161 90.9329L154.159 90.943L158.11 91.568ZM162.79 79.322L159.712 76.767L159.698 76.7843L159.684 76.8018L162.79 79.322ZM186.034 79.634L182.787 81.9697L182.81 82.0021L182.834 82.034L186.034 79.634ZM170.434 120.038L174.379 120.696L174.382 120.68L174.385 120.664L170.434 120.038ZM175.192 90.008L179.143 90.634L179.144 90.6251L179.145 90.6162L175.192 90.008ZM171.994 87.668L168.666 85.4492L168.576 85.5839L168.497 85.7254L171.994 87.668ZM171.292 89.93L167.369 89.1455L167.354 89.2253L167.341 89.3056L171.292 89.93ZM166.534 120.038L162.583 119.414L162.577 119.451L162.572 119.488L166.534 120.038ZM184.032 90.9515L179.664 118.953L187.568 120.187L191.936 92.1845L184.032 90.9515ZM179.666 118.94C178.971 123.295 177.557 126.217 175.739 128.109L181.508 133.651C184.787 130.239 186.701 125.621 187.566 120.2L179.666 118.94ZM175.711 128.139C174.091 129.86 171.86 130.858 168.562 130.858V138.858C173.688 138.858 178.164 137.204 181.537 133.621L175.711 128.139ZM168.562 130.858H166.144V138.858H168.562V130.858ZM166.144 130.858C162.612 130.858 160.466 129.799 159.053 128.135L152.955 133.313C156.222 137.161 160.835 138.858 166.144 138.858V130.858ZM159.105 128.197C157.772 126.562 157.023 124.003 157.692 119.81L149.792 118.55C148.901 124.133 149.659 129.27 152.903 133.251L159.105 128.197ZM157.693 119.805L162.061 92.193L154.159 90.943L149.791 118.555L157.693 119.805ZM162.057 92.2133C162.885 87.1508 164.275 83.8399 165.896 81.8422L159.684 76.8018C156.832 80.3161 155.103 85.1692 154.162 90.9227L162.057 92.2133ZM165.867 81.877C167.185 80.2899 169.351 79.188 173.164 79.188V71.188C167.72 71.188 162.971 72.8421 159.712 76.767L165.867 81.877ZM173.164 79.188H175.426V71.188H173.164V79.188ZM175.426 79.188C179.573 79.188 181.654 80.3957 182.787 81.9697L189.281 77.2983C186.149 72.9443 181.159 71.188 175.426 71.188V79.188ZM182.834 82.034C184.122 83.7516 184.817 86.4687 184.044 90.8775L191.924 92.2585C192.919 86.5793 192.314 81.3404 189.234 77.234L182.834 82.034ZM174.385 120.664L179.143 90.634L171.241 89.382L166.483 119.412L174.385 120.664ZM179.145 90.6162C179.342 89.3368 179.438 87.502 178.538 85.8301C177.403 83.7213 175.344 82.966 173.554 82.966V90.966C173.436 90.966 173.063 90.9455 172.601 90.705C172.097 90.4432 171.719 90.0401 171.494 89.6229C171.295 89.253 171.277 88.9885 171.277 88.9839C171.276 88.9748 171.285 89.0989 171.238 89.3998L179.145 90.6162ZM173.554 82.966C171.929 82.966 169.935 83.5458 168.666 85.4492L175.322 89.8868C175.055 90.2871 174.675 90.6023 174.259 90.7892C173.881 90.9592 173.605 90.966 173.554 90.966V82.966ZM168.497 85.7254C167.924 86.7574 167.595 88.016 167.369 89.1455L175.214 90.7145C175.3 90.2872 175.379 89.9793 175.444 89.7701C175.514 89.5445 175.541 89.52 175.49 89.6106L168.497 85.7254ZM167.341 89.3056L162.583 119.414L170.485 120.662L175.243 90.5544L167.341 89.3056ZM162.572 119.488C162.401 120.719 162.339 122.524 163.293 124.159C164.468 126.173 166.483 126.846 168.172 126.846V118.846C168.282 118.846 168.634 118.864 169.078 119.083C169.563 119.322 169.954 119.702 170.203 120.129C170.428 120.513 170.464 120.809 170.469 120.861C170.475 120.915 170.461 120.839 170.496 120.588L162.572 119.488ZM168.172 126.846C169.987 126.846 171.617 126.058 172.749 124.653C173.738 123.426 174.17 121.954 174.379 120.696L166.488 119.38C166.443 119.653 166.396 119.797 166.377 119.847C166.358 119.898 166.387 119.799 166.519 119.635C166.663 119.457 166.904 119.233 167.255 119.064C167.606 118.896 167.936 118.846 168.172 118.846V126.846ZM220.281 91.568L216.341 90.8775L216.334 90.9144L216.328 90.9515L220.281 91.568ZM215.913 119.57L219.863 120.2L219.865 120.187L215.913 119.57ZM210.921 130.88L208.036 128.109L208.022 128.124L208.008 128.139L210.921 130.88ZM188.301 130.724L185.2 133.251L185.225 133.282L185.252 133.313L188.301 130.724ZM186.039 119.18L189.989 119.81L189.99 119.805L186.039 119.18ZM190.407 91.568L186.459 90.9227L186.457 90.9329L186.456 90.943L190.407 91.568ZM195.087 79.322L192.009 76.767L191.995 76.7843L191.98 76.8018L195.087 79.322ZM218.331 79.634L215.083 81.9697L215.107 82.0021L215.131 82.034L218.331 79.634ZM202.731 120.038L206.676 120.696L206.679 120.68L206.681 120.664L202.731 120.038ZM207.489 90.008L211.439 90.634L211.441 90.6251L211.442 90.6162L207.489 90.008ZM204.291 87.668L200.962 85.4492L200.873 85.5839L200.794 85.7254L204.291 87.668ZM203.589 89.93L199.666 89.1455L199.65 89.2253L199.638 89.3056L203.589 89.93ZM198.831 120.038L194.88 119.414L194.874 119.451L194.869 119.488L198.831 120.038ZM216.328 90.9515L211.96 118.953L219.865 120.187L224.233 92.1845L216.328 90.9515ZM211.963 118.94C211.268 123.295 209.854 126.217 208.036 128.109L213.805 133.651C217.084 130.239 218.998 125.621 219.863 120.2L211.963 118.94ZM208.008 128.139C206.388 129.86 204.157 130.858 200.859 130.858V138.858C205.985 138.858 210.461 137.204 213.833 133.621L208.008 128.139ZM200.859 130.858H198.441V138.858H200.859V130.858ZM198.441 130.858C194.909 130.858 192.763 129.799 191.35 128.135L185.252 133.313C188.519 137.161 193.132 138.858 198.441 138.858V130.858ZM191.402 128.197C190.069 126.562 189.32 124.003 189.989 119.81L182.089 118.55C181.198 124.133 181.956 129.27 185.2 133.251L191.402 128.197ZM189.99 119.805L194.358 92.193L186.456 90.943L182.088 118.555L189.99 119.805ZM194.354 92.2133C195.182 87.1508 196.572 83.8399 198.193 81.8422L191.98 76.8018C189.129 80.3161 187.4 85.1692 186.459 90.9227L194.354 92.2133ZM198.164 81.877C199.482 80.2899 201.648 79.188 205.461 79.188V71.188C200.017 71.188 195.267 72.8421 192.009 76.767L198.164 81.877ZM205.461 79.188H207.723V71.188H205.461V79.188ZM207.723 79.188C211.869 79.188 213.951 80.3957 215.083 81.9697L221.578 77.2983C218.446 72.9443 213.456 71.188 207.723 71.188V79.188ZM215.131 82.034C216.419 83.7516 217.113 86.4687 216.341 90.8775L224.221 92.2585C225.216 86.5793 224.61 81.3404 221.531 77.234L215.131 82.034ZM206.681 120.664L211.439 90.634L203.538 89.382L198.78 119.412L206.681 120.664ZM211.442 90.6162C211.639 89.3368 211.735 87.502 210.835 85.8301C209.7 83.7213 207.64 82.966 205.851 82.966V90.966C205.733 90.966 205.36 90.9455 204.897 90.705C204.394 90.4432 204.016 90.0401 203.791 89.6229C203.592 89.253 203.574 88.9885 203.574 88.9839C203.573 88.9748 203.581 89.0989 203.535 89.3998L211.442 90.6162ZM205.851 82.966C204.226 82.966 202.231 83.5458 200.962 85.4492L207.619 89.8868C207.352 90.2871 206.971 90.6023 206.556 90.7892C206.178 90.9592 205.902 90.966 205.851 90.966V82.966ZM200.794 85.7254C200.221 86.7574 199.892 88.016 199.666 89.1455L207.511 90.7145C207.596 90.2872 207.676 89.9793 207.74 89.7701C207.81 89.5445 207.838 89.52 207.787 89.6106L200.794 85.7254ZM199.638 89.3056L194.88 119.414L202.782 120.662L207.54 90.5544L199.638 89.3056ZM194.869 119.488C194.698 120.719 194.636 122.524 195.59 124.159C196.765 126.173 198.78 126.846 200.469 126.846V118.846C200.579 118.846 200.931 118.864 201.375 119.083C201.86 119.322 202.251 119.702 202.5 120.129C202.725 120.513 202.761 120.809 202.766 120.861C202.772 120.915 202.758 120.839 202.793 120.588L194.869 119.488ZM200.469 126.846C202.284 126.846 203.914 126.058 205.046 124.653C206.035 123.426 206.466 121.954 206.676 120.696L198.785 119.38C198.74 119.653 198.693 119.797 198.674 119.847C198.655 119.898 198.684 119.799 198.816 119.635C198.96 119.457 199.201 119.233 199.552 119.064C199.903 118.896 200.233 118.846 200.469 118.846V126.846ZM243.015 96.56L239.064 95.9315L246.677 98.1691L243.015 96.56ZM252.063 75.968V71.968H249.451L248.401 74.3589L252.063 75.968ZM264.621 75.968L268.284 77.5746L270.743 71.968H264.621V75.968ZM252.921 102.644L249.257 101.037L248.839 101.992L248.939 103.03L252.921 102.644ZM255.963 134V138H260.369L259.944 133.614L255.963 134ZM242.781 134L238.794 134.329L239.097 138H242.781V134ZM240.831 110.366L244.817 110.037L236.88 109.74L240.831 110.366ZM237.087 134V138H240.503L241.037 134.626L237.087 134ZM224.607 134L220.656 133.373L219.922 138H224.607V134ZM233.811 75.968V71.968H230.395L229.86 75.3414L233.811 75.968ZM246.291 75.968L250.241 76.5965L250.977 71.968H246.291V75.968ZM246.677 98.1691L255.725 77.5771L248.401 74.3589L239.353 94.9509L246.677 98.1691ZM252.063 79.968H264.621V71.968H252.063V79.968ZM260.957 74.3614L249.257 101.037L256.584 104.251L268.284 77.5746L260.957 74.3614ZM248.939 103.03L251.981 134.386L259.944 133.614L256.902 102.258L248.939 103.03ZM255.963 130H242.781V138H255.963V130ZM246.767 133.671L244.817 110.037L236.844 110.695L238.794 134.329L246.767 133.671ZM236.88 109.74L233.136 133.374L241.037 134.626L244.781 110.992L236.88 109.74ZM237.087 130H224.607V138H237.087V130ZM228.557 134.627L237.761 76.5946L229.86 75.3414L220.656 133.373L228.557 134.627ZM233.811 79.968H246.291V71.968H233.811V79.968ZM242.34 75.3395L239.064 95.9315L246.965 97.1885L250.241 76.5965L242.34 75.3395ZM266.258 75.968V71.968H262.84L262.307 75.3441L266.258 75.968ZM291.452 75.968L295.399 76.6164L296.163 71.968H291.452V75.968ZM289.658 86.888L293.236 88.6769L293.507 88.1346L293.605 87.5364L289.658 86.888ZM272.108 121.988L268.53 120.199L265.636 125.988H272.108V121.988ZM284.822 121.988L288.774 122.604L289.494 117.988H284.822V121.988ZM282.95 134V138H286.375L286.902 134.616L282.95 134ZM256.43 134L252.481 133.36L251.73 138H256.43V134ZM258.224 122.924L254.659 121.11L254.375 121.667L254.275 122.284L258.224 122.924ZM276.086 87.824L279.651 89.6382L282.61 83.824H276.086V87.824ZM264.386 87.824L260.435 87.2001L259.705 91.824H264.386V87.824ZM266.258 79.968H291.452V71.968H266.258V79.968ZM287.505 75.3195L285.711 86.2395L293.605 87.5364L295.399 76.6164L287.505 75.3195ZM286.08 85.0991L268.53 120.199L275.686 123.777L293.236 88.6769L286.08 85.0991ZM272.108 125.988H284.822V117.988H272.108V125.988ZM280.87 121.372L278.998 133.384L286.902 134.616L288.774 122.604L280.87 121.372ZM282.95 130H256.43V138H282.95V130ZM260.379 134.64L262.173 123.564L254.275 122.284L252.481 133.36L260.379 134.64ZM261.789 124.738L279.651 89.6382L272.521 86.0098L254.659 121.11L261.789 124.738ZM276.086 83.824H264.386V91.824H276.086V83.824ZM268.337 88.4478L270.209 76.5918L262.307 75.3441L260.435 87.2001L268.337 88.4478ZM293.439 75.968V71.968H290.036L289.49 75.327L293.439 75.968ZM319.959 75.968L323.911 76.5839L324.63 71.968H319.959V75.968ZM318.087 87.98V91.98H321.512L322.039 88.5959L318.087 87.98ZM311.067 87.98V83.98H307.648L307.115 87.3572L311.067 87.98ZM303.813 134V138H307.231L307.764 134.623L303.813 134ZM291.333 134L287.381 133.377L286.653 138H291.333V134ZM298.587 87.98L302.538 88.6028L303.266 83.98H298.587V87.98ZM291.489 87.98L287.54 87.339L286.787 91.98H291.489V87.98ZM293.439 79.968H319.959V71.968H293.439V79.968ZM316.006 75.3521L314.134 87.3641L322.039 88.5959L323.911 76.5839L316.006 75.3521ZM318.087 83.98H311.067V91.98H318.087V83.98ZM307.115 87.3572L299.861 133.377L307.764 134.623L315.018 88.6028L307.115 87.3572ZM303.813 130H291.333V138H303.813V130ZM295.284 134.623L302.538 88.6028L294.635 87.3572L287.381 133.377L295.284 134.623ZM298.587 83.98H291.489V91.98H298.587V83.98ZM295.437 88.621L297.387 76.609L289.49 75.327L287.54 87.339L295.437 88.621ZM16.72 201.55L12.7657 200.947L12.0636 205.55H16.72V201.55ZM17.98 193.29L21.9343 193.893L22.6364 189.29H17.98V193.29ZM10.84 193.29L6.88605 192.685L6.18117 197.29H10.84V193.29ZM11.89 186.43V182.43H8.45566L7.93605 185.825L11.89 186.43ZM19.03 186.43V190.43H22.4375L22.9791 187.066L19.03 186.43ZM20.36 178.17V174.17H16.9525L16.4109 177.534L20.36 178.17ZM27.78 178.17L31.7291 178.806L32.4756 174.17H27.78V178.17ZM26.45 186.43L22.5009 185.794L21.7544 190.43H26.45V186.43ZM33.66 186.43L37.614 187.035L38.3188 182.43H33.66V186.43ZM32.61 193.29V197.29H36.0443L36.564 193.895L32.61 193.29ZM25.4 193.29V189.29H21.9639L21.4457 192.687L25.4 193.29ZM24.14 201.55V205.55H27.5761L28.0943 202.153L24.14 201.55ZM20.6743 202.153L21.9343 193.893L14.0257 192.687L12.7657 200.947L20.6743 202.153ZM17.98 189.29H10.84V197.29H17.98V189.29ZM14.794 193.895L15.844 187.035L7.93605 185.825L6.88605 192.685L14.794 193.895ZM11.89 190.43H19.03V182.43H11.89V190.43ZM22.9791 187.066L24.3091 178.806L16.4109 177.534L15.0809 185.794L22.9791 187.066ZM20.36 182.17H27.78V174.17H20.36V182.17ZM23.8309 177.534L22.5009 185.794L30.3991 187.066L31.7291 178.806L23.8309 177.534ZM26.45 190.43H33.66V182.43H26.45V190.43ZM29.7061 185.825L28.656 192.685L36.564 193.895L37.614 187.035L29.7061 185.825ZM32.61 189.29H25.4V197.29H32.61V189.29ZM21.4457 192.687L20.1857 200.947L28.0943 202.153L29.3543 193.893L21.4457 192.687ZM24.14 197.55H16.72V205.55H24.14V197.55ZM50.337 174.46L54.2885 175.081L55.0144 170.46H50.337V174.46ZM44.947 174.46L40.9968 173.83L40.2588 178.46H44.947V174.46ZM46.487 164.8V160.8H43.0741L42.5368 164.17L46.487 164.8ZM51.807 163.33L54.3797 166.393L54.4149 166.363L54.4495 166.333L51.807 163.33ZM54.397 158.92V154.92H51.3999L50.558 157.796L54.397 158.92ZM63.917 158.92L67.8676 159.547L68.6014 154.92H63.917V158.92ZM55.657 211V215H59.0725L59.6076 211.627L55.657 211ZM44.597 211L40.6454 210.379L39.9195 215H44.597V211ZM50.337 170.46H44.947V178.46H50.337V170.46ZM48.8971 175.09L50.4371 165.43L42.5368 164.17L40.9968 173.83L48.8971 175.09ZM46.487 168.8C49.3064 168.8 52.1841 168.237 54.3797 166.393L49.2342 160.267C49.0964 160.383 48.4275 160.8 46.487 160.8V168.8ZM54.4495 166.333C56.3252 164.682 57.5226 162.481 58.2359 160.044L50.558 157.796C50.1513 159.186 49.622 159.924 49.1644 160.327L54.4495 166.333ZM54.397 162.92H63.917V154.92H54.397V162.92ZM59.9663 158.293L51.7063 210.373L59.6076 211.627L67.8676 159.547L59.9663 158.293ZM55.657 207H44.597V215H55.657V207ZM48.5485 211.621L54.2885 175.081L46.3854 173.839L40.6454 210.379L48.5485 211.621ZM72.6407 187.97V191.97H76.0546L76.591 188.598L72.6407 187.97ZM62.0007 187.97L58.0489 187.351L57.3254 191.97H62.0007V187.97ZM66.5507 158.92V154.92H63.1284L62.5989 158.301L66.5507 158.92ZM90.2807 158.92L94.2326 159.538L94.9552 154.92H90.2807V158.92ZM88.6707 169.21V173.21H92.0935L92.6226 169.828L88.6707 169.21ZM75.3007 169.21V165.21H71.8855L71.3502 168.583L75.3007 169.21ZM73.9007 178.03L69.9502 177.403L77.1753 180.327L73.9007 178.03ZM86.8507 175.65L83.4761 177.797L83.4989 177.833L83.5225 177.869L86.8507 175.65ZM87.7607 181.32L83.8292 180.583L83.8186 180.64L83.8095 180.697L87.7607 181.32ZM84.6807 200.85L88.6308 201.48L88.6319 201.473L84.6807 200.85ZM80.9707 208.76L83.8322 211.555L83.8483 211.539L83.8641 211.522L80.9707 208.76ZM61.3707 208.48L64.5137 206.006L61.3707 208.48ZM59.5507 200.15L55.6016 199.514L55.599 199.53L55.5966 199.546L59.5507 200.15ZM60.8807 191.89V187.89H57.4732L56.9316 191.254L60.8807 191.89ZM71.7307 191.89L75.6791 192.53L76.4316 187.89H71.7307V191.89ZM70.4707 199.66L74.3819 200.498L74.403 200.4L74.4191 200.3L70.4707 199.66ZM73.3407 199.66L69.3892 199.039L69.3849 199.067L69.3809 199.094L73.3407 199.66ZM75.6507 184.96L71.713 184.257L71.7057 184.298L71.6992 184.339L75.6507 184.96ZM73.1307 184.89L77.081 185.518L77.0844 185.497L77.0875 185.476L73.1307 184.89ZM72.6407 183.97H62.0007V191.97H72.6407V183.97ZM65.9525 188.589L70.5025 159.539L62.5989 158.301L58.0489 187.351L65.9525 188.589ZM66.5507 162.92H90.2807V154.92H66.5507V162.92ZM86.3288 158.302L84.7188 168.592L92.6226 169.828L94.2326 159.538L86.3288 158.302ZM88.6707 165.21H75.3007V173.21H88.6707V165.21ZM71.3502 168.583L69.9502 177.403L77.8512 178.657L79.2512 169.837L71.3502 168.583ZM77.1753 180.327C78.868 177.914 80.3439 177.34 81.6007 177.34V169.34C76.9775 169.34 73.32 171.893 70.6261 175.733L77.1753 180.327ZM81.6007 177.34H82.1607V169.34H81.6007V177.34ZM82.1607 177.34C83.2206 177.34 83.3693 177.63 83.4761 177.797L90.2254 173.503C88.3721 170.59 85.3942 169.34 82.1607 169.34V177.34ZM83.5225 177.869C83.8422 178.348 84.1039 179.118 83.8292 180.583L91.6922 182.057C92.2575 179.042 91.9125 176.032 90.1789 173.431L83.5225 177.869ZM83.8095 180.697L80.7295 200.227L88.6319 201.473L91.7119 181.943L83.8095 180.697ZM80.7306 200.22C80.3254 202.762 79.3966 204.616 78.0773 205.998L83.8641 211.522C86.4648 208.797 88.0093 205.378 88.6308 201.48L80.7306 200.22ZM78.1092 205.965C77.069 207.03 75.4921 207.77 72.8507 207.77V215.77C77.116 215.77 80.9524 214.503 83.8322 211.555L78.1092 205.965ZM72.8507 207.77H70.1907V215.77H72.8507V207.77ZM70.1907 207.77C66.6467 207.77 65.1683 206.837 64.5137 206.006L58.2278 210.954C61.0264 214.509 65.4281 215.77 70.1907 215.77V207.77ZM64.5137 206.006C63.6171 204.867 63.1195 203.276 63.5048 200.754L55.5966 199.546C54.9553 203.744 55.671 207.706 58.2278 210.954L64.5137 206.006ZM63.4998 200.786L64.8298 192.526L56.9316 191.254L55.6016 199.514L63.4998 200.786ZM60.8807 195.89H71.7307V187.89H60.8807V195.89ZM67.7823 191.25L66.5223 199.02L74.4191 200.3L75.6791 192.53L67.7823 191.25ZM66.5595 198.822C66.3467 199.815 66.1355 201.62 67.211 203.293C68.451 205.222 70.4612 205.62 71.7307 205.62V197.62C71.8802 197.62 73.1205 197.691 73.9404 198.967C74.5959 199.987 74.3147 200.812 74.3819 200.498L66.5595 198.822ZM71.7307 205.62C73.304 205.62 74.8194 204.971 75.8891 203.669C76.8138 202.543 77.1568 201.232 77.3005 200.226L69.3809 199.094C69.3379 199.395 69.3192 199.063 69.7073 198.591C69.9267 198.324 70.2452 198.053 70.6614 197.862C71.0722 197.674 71.4527 197.62 71.7307 197.62V205.62ZM77.2922 200.281L79.6022 185.581L71.6992 184.339L69.3892 199.039L77.2922 200.281ZM79.5884 185.663C79.7567 184.721 79.9124 183.069 79.0187 181.505C77.9026 179.552 75.9568 179 74.5307 179V187C74.3496 187 73.925 186.972 73.413 186.725C72.8528 186.454 72.38 186.012 72.0727 185.475C71.7921 184.983 71.7348 184.565 71.7221 184.387C71.7094 184.21 71.732 184.15 71.713 184.257L79.5884 185.663ZM74.5307 179C72.8175 179 71.35 179.818 70.4065 181.092C69.6105 182.166 69.3099 183.385 69.1739 184.304L77.0875 185.476C77.1381 185.135 77.1643 185.409 76.8349 185.853C76.6428 186.113 76.329 186.428 75.8665 186.668C75.3974 186.912 74.9252 187 74.5307 187V179ZM69.1804 184.262L68.6904 187.342L76.591 188.598L77.081 185.518L69.1804 184.262ZM117.913 172.92L113.973 172.229L113.966 172.266L113.96 172.303L117.913 172.92ZM113.993 198.05L117.943 198.68L117.945 198.667L113.993 198.05ZM109.513 208.2L106.628 205.429L106.614 205.444L106.6 205.459L109.513 208.2ZM89.2127 208.06L86.1117 210.587L86.1373 210.618L86.1635 210.649L89.2127 208.06ZM87.1827 197.7L91.1327 198.33L91.1335 198.325L87.1827 197.7ZM91.1027 172.92L87.155 172.275L87.1534 172.285L87.1518 172.295L91.1027 172.92ZM95.3027 161.93L92.225 159.375L92.2106 159.392L92.1964 159.41L95.3027 161.93ZM116.163 162.21L112.915 164.546L112.939 164.578L112.963 164.61L116.163 162.21ZM102.163 198.47L106.108 199.128L106.111 199.112L106.113 199.096L102.163 198.47ZM106.433 171.52L110.383 172.146L110.385 172.137L110.386 172.128L106.433 171.52ZM103.563 169.42L100.234 167.201L100.145 167.336L100.066 167.477L103.563 169.42ZM102.933 171.45L99.0103 170.666L98.9944 170.745L98.9817 170.826L102.933 171.45ZM98.6627 198.47L94.7117 197.846L94.7058 197.883L94.7007 197.92L98.6627 198.47ZM113.96 172.303L110.04 197.433L117.945 198.667L121.865 173.536L113.96 172.303ZM110.043 197.42C109.428 201.274 108.184 203.809 106.628 205.429L112.397 210.971C115.414 207.831 117.158 203.599 117.943 198.68L110.043 197.42ZM106.6 205.459C105.236 206.908 103.348 207.77 100.483 207.77V215.77C105.177 215.77 109.309 214.252 112.425 210.941L106.6 205.459ZM100.483 207.77H98.3127V215.77H100.483V207.77ZM98.3127 207.77C95.2346 207.77 93.4346 206.852 92.2618 205.471L86.1635 210.649C89.1907 214.214 93.4574 215.77 98.3127 215.77V207.77ZM92.3136 205.533C91.2157 204.186 90.5436 202.022 91.1327 198.33L83.2326 197.07C82.4217 202.151 83.103 206.894 86.1117 210.587L92.3136 205.533ZM91.1335 198.325L95.0535 173.545L87.1518 172.295L83.2318 197.075L91.1335 198.325ZM95.0503 173.565C95.7871 169.057 97.0174 166.165 98.4089 164.45L92.1964 159.41C89.5746 162.641 88.0049 167.076 87.155 172.275L95.0503 173.565ZM98.3803 164.485C99.4633 163.181 101.275 162.22 104.613 162.22V154.22C99.6438 154.22 95.2487 155.733 92.225 159.375L98.3803 164.485ZM104.613 162.22H106.643V154.22H104.613V162.22ZM106.643 162.22C110.283 162.22 112.002 163.276 112.915 164.546L119.41 159.874C116.497 155.824 111.869 154.22 106.643 154.22V162.22ZM112.963 164.61C114.027 166.029 114.655 168.338 113.973 172.229L121.853 173.611C122.757 168.449 122.218 163.618 119.363 159.81L112.963 164.61ZM106.113 199.096L110.383 172.146L102.482 170.894L98.2119 197.844L106.113 199.096ZM110.386 172.128C110.567 170.953 110.669 169.196 109.797 167.576C108.69 165.519 106.68 164.79 104.963 164.79V172.79C104.809 172.79 104.405 172.763 103.918 172.509C103.389 172.235 102.992 171.812 102.753 171.369C102.54 170.973 102.513 170.676 102.51 170.632C102.506 170.584 102.517 170.663 102.479 170.912L110.386 172.128ZM104.963 164.79C103.413 164.79 101.471 165.346 100.234 167.201L106.891 171.639C106.608 172.063 106.206 172.396 105.764 172.595C105.36 172.777 105.051 172.79 104.963 172.79V164.79ZM100.066 167.477C99.5194 168.461 99.2149 169.643 99.0103 170.666L106.855 172.234C106.93 171.861 106.997 171.599 107.05 171.428C107.108 171.241 107.123 171.248 107.059 171.363L100.066 167.477ZM98.9817 170.826L94.7117 197.846L102.614 199.094L106.884 172.074L98.9817 170.826ZM94.7007 197.92C94.543 199.055 94.4737 200.788 95.4 202.375C96.5469 204.341 98.5132 204.99 100.133 204.99V196.99C100.278 196.99 100.659 197.014 101.127 197.245C101.636 197.496 102.047 197.894 102.31 198.345C102.548 198.753 102.594 199.079 102.603 199.167C102.612 199.257 102.596 199.223 102.625 199.02L94.7007 197.92ZM100.133 204.99C101.887 204.99 103.467 204.226 104.56 202.869C105.51 201.69 105.914 200.29 106.108 199.128L98.2171 197.812C98.1309 198.33 98.0565 198.19 98.3301 197.851C98.4928 197.649 98.7565 197.407 99.1324 197.226C99.5088 197.046 99.8659 196.99 100.133 196.99V204.99ZM147.975 206.31V202.31H144.55L144.023 205.694L147.975 206.31ZM147.135 211.7V215.7H150.56L151.087 212.316L147.135 211.7ZM136.005 211.7L132.053 211.084L131.333 215.7H136.005V211.7ZM136.845 206.31L140.797 206.926L141.517 202.31H136.845V206.31ZM125.505 203.23L122.348 205.686L122.361 205.703L122.375 205.72L125.505 203.23ZM124.035 193.92L127.985 194.548L127.987 194.541L127.988 194.533L124.035 193.92ZM126.975 174.95L123.024 174.328L123.022 174.337L126.975 174.95ZM143.845 162.49V166.49H147.243L147.792 163.137L143.845 162.49ZM144.545 158.22V154.22H141.147L140.598 157.573L144.545 158.22ZM155.675 158.22L159.622 158.867L160.384 154.22H155.675V158.22ZM154.975 162.49L151.028 161.843L150.266 166.49H154.975V162.49ZM167.785 174.81L163.835 174.182L163.833 174.189L163.832 174.197L167.785 174.81ZM164.845 193.78L168.795 194.408L168.797 194.401L168.798 194.393L164.845 193.78ZM160.435 203.16L163.171 206.078L163.173 206.076L160.435 203.16ZM153.435 172.29V168.29H150.025L149.485 171.657L153.435 172.29ZM149.585 196.3L145.635 195.667L144.892 200.3H149.585V196.3ZM152.245 195.6L149.554 192.64L149.484 192.704L149.416 192.772L152.245 195.6ZM153.295 193.22L157.24 193.878L157.243 193.86L157.246 193.842L153.295 193.22ZM156.095 175.44L152.154 174.755L152.149 174.786L152.144 174.818L156.095 175.44ZM155.885 173.06L152.373 174.975L152.438 175.094L152.51 175.207L155.885 173.06ZM138.455 196.3V200.3H141.865L142.404 196.933L138.455 196.3ZM142.305 172.29L146.254 172.923L146.997 168.29H142.305V172.29ZM139.505 172.99L136.676 170.162L139.505 172.99ZM138.595 175.3L134.649 174.642L134.647 174.654L134.646 174.665L138.595 175.3ZM135.725 193.15L139.67 193.808L139.672 193.796L139.674 193.785L135.725 193.15ZM135.935 195.6L132.56 197.748L132.608 197.822L132.658 197.894L135.935 195.6ZM151.405 202.31H147.975V210.31H151.405V202.31ZM144.023 205.694L143.183 211.084L151.087 212.316L151.927 206.926L144.023 205.694ZM147.135 207.7H136.005V215.7H147.135V207.7ZM139.957 212.316L140.797 206.926L132.893 205.694L132.053 211.084L139.957 212.316ZM136.845 202.31H133.485V210.31H136.845V202.31ZM133.485 202.31C130.497 202.31 129.236 201.496 128.635 200.74L122.375 205.72C125.04 209.071 129.099 210.31 133.485 210.31V202.31ZM128.662 200.774C128.01 199.936 127.41 198.166 127.985 194.548L120.085 193.292C119.353 197.887 119.733 202.324 122.348 205.686L128.662 200.774ZM127.988 194.533L130.928 175.563L123.022 174.337L120.082 193.307L127.988 194.533ZM130.926 175.572C131.491 171.98 132.664 169.818 134.044 168.545C135.381 167.313 137.371 166.49 140.485 166.49V158.49C135.899 158.49 131.787 159.744 128.621 162.665C125.497 165.545 123.765 169.613 123.024 174.328L130.926 175.572ZM140.485 166.49H143.845V158.49H140.485V166.49ZM147.792 163.137L148.492 158.867L140.598 157.573L139.898 161.843L147.792 163.137ZM144.545 162.22H155.675V154.22H144.545V162.22ZM151.728 157.573L151.028 161.843L158.922 163.137L159.622 158.867L151.728 157.573ZM154.975 166.49H158.265V158.49H154.975V166.49ZM158.265 166.49C161.463 166.49 162.699 167.341 163.22 168.016C163.819 168.792 164.416 170.527 163.835 174.182L171.735 175.438C172.461 170.88 172.124 166.455 169.55 163.124C166.898 159.692 162.72 158.49 158.265 158.49V166.49ZM163.832 174.197L160.892 193.167L168.798 194.393L171.738 175.423L163.832 174.197ZM160.895 193.152C160.335 196.667 159.154 198.876 157.697 200.244L163.173 206.076C166.289 203.151 168.048 199.106 168.795 194.408L160.895 193.152ZM157.699 200.242C156.363 201.495 154.416 202.31 151.405 202.31V210.31C155.954 210.31 160.027 209.025 163.171 206.078L157.699 200.242ZM153.785 168.29H153.435V176.29H153.785V168.29ZM149.485 171.657L145.635 195.667L153.534 196.933L157.384 172.923L149.485 171.657ZM149.585 200.3H150.005V192.3H149.585V200.3ZM150.005 200.3C151.519 200.3 153.53 199.972 155.073 198.428L149.416 192.772C149.718 192.47 150.012 192.348 150.142 192.307C150.254 192.272 150.232 192.3 150.005 192.3V200.3ZM154.936 198.56C156.421 197.21 156.993 195.363 157.24 193.878L149.349 192.562C149.323 192.72 149.296 192.836 149.273 192.918C149.25 193.001 149.234 193.038 149.233 193.04C149.229 193.05 149.308 192.864 149.554 192.64L154.936 198.56ZM157.246 193.842L160.046 176.062L152.144 174.818L149.344 192.598L157.246 193.842ZM160.036 176.125C160.271 174.771 160.409 172.718 159.26 170.912L152.51 175.207C152.24 174.782 152.202 174.443 152.198 174.392C152.194 174.342 152.208 174.444 152.154 174.755L160.036 176.125ZM159.397 171.145C157.956 168.504 155.055 168.29 153.785 168.29V176.29C154.087 176.29 154.027 176.331 153.773 176.238C153.47 176.127 152.815 175.784 152.373 174.975L159.397 171.145ZM138.035 200.3H138.455V192.3H138.035V200.3ZM142.404 196.933L146.254 172.923L138.355 171.657L134.505 195.667L142.404 196.933ZM142.305 168.29H141.815V176.29H142.305V168.29ZM141.815 168.29C140.316 168.29 138.247 168.591 136.676 170.162L142.333 175.818C142.01 176.142 141.701 176.26 141.592 176.293C141.5 176.321 141.549 176.29 141.815 176.29V168.29ZM136.676 170.162C135.333 171.505 134.867 173.338 134.649 174.642L142.54 175.958C142.571 175.776 142.601 175.635 142.629 175.529C142.656 175.423 142.677 175.366 142.684 175.349C142.691 175.33 142.678 175.37 142.63 175.448C142.582 175.527 142.489 175.663 142.333 175.818L136.676 170.162ZM134.646 174.665L131.776 192.515L139.674 193.785L142.544 175.935L134.646 174.665ZM131.779 192.492C131.555 193.84 131.404 195.931 132.56 197.748L139.31 193.452C139.591 193.895 139.621 194.24 139.623 194.261C139.625 194.282 139.621 194.256 139.626 194.174C139.631 194.092 139.643 193.972 139.67 193.808L131.779 192.492ZM132.658 197.894C134.194 200.088 136.748 200.3 138.035 200.3V192.3C137.751 192.3 137.772 192.264 137.97 192.33C138.193 192.405 138.755 192.653 139.212 193.306L132.658 197.894ZM178.391 190.91V186.91H174.969L174.439 190.29L178.391 190.91ZM175.241 211V215H178.663L179.193 211.62L175.241 211ZM164.041 211L160.09 210.373L159.357 215H164.041V211ZM172.301 158.92V154.92H168.885L168.35 158.293L172.301 158.92ZM196.451 169.42L200.403 170.036L200.406 170.018L200.409 170L196.451 169.42ZM194.771 180.2L190.819 179.584L190.817 179.595L190.815 179.605L194.771 180.2ZM182.101 168.02V164.02H178.683L178.15 167.396L182.101 168.02ZM180.001 181.32L176.05 180.696L175.32 185.32H180.001V181.32ZM183.011 180.83L180.001 178.196L179.987 178.211L179.974 178.227L183.011 180.83ZM183.711 178.87L179.757 178.267L179.755 178.277L183.711 178.87ZM184.971 170.61L181.023 169.97L181.02 169.988L181.017 170.007L184.971 170.61ZM184.691 186.91H178.391V194.91H184.691V186.91ZM174.439 190.29L171.289 210.38L179.193 211.62L182.343 191.53L174.439 190.29ZM175.241 207H164.041V215H175.241V207ZM167.992 211.627L176.252 159.547L168.35 158.293L160.09 210.373L167.992 211.627ZM172.301 162.92H187.701V154.92H172.301V162.92ZM187.701 162.92C190.554 162.92 191.581 163.651 191.961 164.106C192.37 164.597 192.932 165.848 192.493 168.84L200.409 170C200.997 165.992 200.614 161.993 198.106 158.984C195.569 155.939 191.708 154.92 187.701 154.92V162.92ZM192.499 168.804L190.819 179.584L198.723 180.816L200.403 170.036L192.499 168.804ZM190.815 179.605C190.346 182.731 189.449 184.518 188.533 185.491C187.726 186.349 186.595 186.91 184.691 186.91V194.91C188.434 194.91 191.806 193.686 194.359 190.974C196.803 188.377 198.123 184.809 198.727 180.795L190.815 179.605ZM178.15 167.396L176.05 180.696L183.952 181.944L186.052 168.644L178.15 167.396ZM180.001 185.32H181.541V177.32H180.001V185.32ZM181.541 185.32C182.692 185.32 184.641 185.075 186.048 183.433L179.974 178.227C180.393 177.739 180.864 177.504 181.169 177.403C181.447 177.31 181.603 177.32 181.541 177.32V185.32ZM186.021 183.464C187.132 182.194 187.5 180.577 187.667 179.463L179.755 178.277C179.734 178.418 179.713 178.525 179.695 178.601C179.686 178.639 179.678 178.667 179.673 178.687C179.667 178.706 179.664 178.715 179.664 178.715C179.664 178.714 179.668 178.702 179.678 178.681C179.687 178.659 179.703 178.626 179.727 178.582C179.773 178.498 179.859 178.358 180.001 178.196L186.021 183.464ZM187.665 179.473L188.925 171.213L181.017 170.007L179.757 178.267L187.665 179.473ZM188.919 171.25C189.109 170.082 189.216 168.275 188.234 166.623C187.039 164.613 185.01 164.02 183.431 164.02V172.02C183.334 172.02 182.991 172.006 182.548 171.796C182.06 171.564 181.637 171.181 181.358 170.712C181.104 170.286 181.058 169.939 181.048 169.836C181.039 169.734 181.056 169.763 181.023 169.97L188.919 171.25ZM183.431 164.02H182.101V172.02H183.431V164.02ZM210.488 158.92L214.439 159.543L215.168 154.92H210.488V158.92ZM206.428 184.68L202.477 184.057L210.177 186.076L206.428 184.68ZM216.018 158.92V154.92H213.239L212.27 157.524L216.018 158.92ZM226.728 158.92L230.679 159.547L231.413 154.92H226.728V158.92ZM218.468 211V215H221.884L222.419 211.627L218.468 211ZM207.758 211L203.807 210.376L203.076 215H207.758V211ZM211.818 185.31L215.769 185.934L208.071 183.911L211.818 185.31ZM202.228 211V215H205.005L205.976 212.399L202.228 211ZM191.518 211L187.568 210.373L186.834 215H191.518V211ZM199.778 158.92V154.92H196.363L195.828 158.293L199.778 158.92ZM206.537 158.297L202.477 184.057L210.379 185.303L214.439 159.543L206.537 158.297ZM210.177 186.076L219.767 160.316L212.27 157.524L202.68 183.284L210.177 186.076ZM216.018 162.92H226.728V154.92H216.018V162.92ZM222.778 158.293L214.518 210.373L222.419 211.627L230.679 159.547L222.778 158.293ZM218.468 207H207.758V215H218.468V207ZM211.709 211.624L215.769 185.934L207.867 184.686L203.807 210.376L211.709 211.624ZM208.071 183.911L198.481 209.601L205.976 212.399L215.566 186.709L208.071 183.911ZM202.228 207H191.518V215H202.228V207ZM195.469 211.627L203.729 159.547L195.828 158.293L187.568 210.373L195.469 211.627ZM199.778 162.92H210.488V154.92H199.778V162.92ZM237.999 198.61L241.929 199.358L241.941 199.294L241.951 199.228L237.999 198.61ZM239.609 188.32V184.32H236.186L235.657 187.702L239.609 188.32ZM250.739 188.32L254.69 188.944L255.42 184.32H250.739V188.32ZM249.059 198.96L245.108 198.336L245.103 198.367L245.099 198.397L249.059 198.96ZM224.489 208.06L221.247 210.402L221.257 210.416L221.268 210.431L224.489 208.06ZM222.669 197.91L218.72 197.276L218.714 197.31L218.709 197.344L222.669 197.91ZM226.939 171.31L222.993 170.659L222.991 170.668L222.99 170.676L226.939 171.31ZM231.069 161.58L234.018 164.283L234.018 164.283L231.069 161.58ZM251.789 161.58L248.621 164.022L248.637 164.043L248.653 164.063L251.789 161.58ZM253.539 170.47L249.592 169.821L249.59 169.832L249.589 169.844L253.539 170.47ZM252.209 178.87V182.87H255.626L256.16 179.496L252.209 178.87ZM241.079 178.87L237.133 178.218L236.364 182.87H241.079V178.87ZM242.409 170.82L246.356 171.472L246.375 171.356L246.387 171.239L242.409 170.82ZM242.199 168.86L245.696 166.917L245.696 166.917L242.199 168.86ZM239.329 168.86L242.529 171.26L242.596 171.171L242.657 171.079L239.329 168.86ZM238.699 170.82L242.649 171.452L242.652 171.433L242.655 171.413L238.699 170.82ZM234.219 198.82L230.27 198.188L230.263 198.229L230.257 198.27L234.219 198.82ZM237.299 200.71L240.627 202.929L240.627 202.929L237.299 200.71ZM241.951 199.228L243.561 188.938L235.657 187.702L234.047 197.992L241.951 199.228ZM239.609 192.32H250.739V184.32H239.609V192.32ZM246.788 187.696L245.108 198.336L253.01 199.584L254.69 188.944L246.788 187.696ZM245.099 198.397C244.564 202.161 243.425 204.422 242.109 205.731C240.869 206.964 239.054 207.77 236.179 207.77V215.77C240.678 215.77 244.696 214.441 247.75 211.404C250.727 208.443 252.341 204.299 253.02 199.523L245.099 198.397ZM236.179 207.77H234.149V215.77H236.179V207.77ZM234.149 207.77C230.135 207.77 228.454 206.699 227.711 205.689L221.268 210.431C224.164 214.367 228.924 215.77 234.149 215.77V207.77ZM227.732 205.718C226.718 204.314 226.112 202.092 226.629 198.476L218.709 197.344C218.013 202.221 218.621 206.766 221.247 210.402L227.732 205.718ZM226.619 198.544L230.889 171.944L222.99 170.676L218.72 197.276L226.619 198.544ZM230.886 171.961C231.51 168.175 232.666 165.758 234.018 164.283L228.121 158.877C225.366 161.882 223.769 165.952 222.993 170.659L230.886 171.961ZM234.018 164.283C235.059 163.148 236.927 162.22 240.449 162.22V154.22C235.571 154.22 231.187 155.532 228.121 158.877L234.018 164.283ZM240.449 162.22H242.479V154.22H240.449V162.22ZM242.479 162.22C246.449 162.22 248.008 163.226 248.621 164.022L254.957 159.138C252.118 155.454 247.469 154.22 242.479 154.22V162.22ZM248.653 164.063C249.528 165.168 250.076 166.884 249.592 169.821L257.486 171.119C258.216 166.682 257.597 162.472 254.925 159.097L248.653 164.063ZM249.589 169.844L248.259 178.244L256.16 179.496L257.49 171.096L249.589 169.844ZM252.209 174.87H241.079V182.87H252.209V174.87ZM245.026 179.522L246.356 171.472L238.463 170.168L237.133 178.218L245.026 179.522ZM246.387 171.239C246.503 170.137 246.546 168.448 245.696 166.917L238.703 170.803C238.589 170.598 238.528 170.424 238.494 170.307C238.461 170.19 238.452 170.113 238.45 170.091C238.446 170.058 238.458 170.147 238.431 170.401L246.387 171.239ZM245.696 166.917C244.461 164.694 242.216 164.23 240.799 164.23V172.23C240.779 172.23 240.468 172.231 240.033 172.035C239.535 171.811 239.033 171.397 238.703 170.803L245.696 166.917ZM240.799 164.23C239.327 164.23 237.289 164.709 236.001 166.641L242.657 171.079C242.342 171.551 241.909 171.881 241.482 172.064C241.1 172.228 240.83 172.23 240.799 172.23V164.23ZM236.129 166.46C235.218 167.675 234.901 169.179 234.744 170.227L242.655 171.413C242.679 171.256 242.702 171.131 242.724 171.034C242.745 170.937 242.762 170.879 242.77 170.854C242.778 170.828 242.772 170.853 242.742 170.915C242.713 170.976 242.648 171.102 242.529 171.26L236.129 166.46ZM234.75 170.188L230.27 198.188L238.169 199.452L242.649 171.452L234.75 170.188ZM230.257 198.27C230.091 199.468 230.048 201.297 231.136 202.929C232.4 204.824 234.389 205.34 235.899 205.34V197.34C235.958 197.34 236.247 197.347 236.641 197.52C237.076 197.711 237.493 198.043 237.792 198.491C238.07 198.908 238.142 199.267 238.16 199.408C238.177 199.542 238.157 199.547 238.181 199.37L230.257 198.27ZM235.899 205.34C237.449 205.34 239.391 204.784 240.627 202.929L233.971 198.491C234.254 198.067 234.656 197.734 235.098 197.535C235.502 197.353 235.811 197.34 235.899 197.34V205.34ZM240.627 202.929C241.372 201.813 241.72 200.451 241.929 199.358L234.07 197.862C233.999 198.233 233.934 198.471 233.89 198.605C233.868 198.669 233.858 198.689 233.864 198.676C233.87 198.664 233.902 198.595 233.971 198.491L240.627 202.929ZM248.94 211L244.989 210.373L244.256 215H248.94V211ZM257.2 158.92V154.92H253.784L253.249 158.293L257.2 158.92ZM283.17 158.92L287.121 159.547L287.854 154.92H283.17V158.92ZM274.91 211V215H278.326L278.861 211.627L274.91 211ZM263.71 211L259.76 210.371L259.022 215H263.71V211ZM270.29 169.7L274.24 170.329L274.978 165.7H270.29V169.7ZM266.72 169.7V165.7H263.307L262.77 169.071L266.72 169.7ZM260.14 211V215H263.553L264.09 211.629L260.14 211ZM252.891 211.627L261.151 159.547L253.249 158.293L244.989 210.373L252.891 211.627ZM257.2 162.92H283.17V154.92H257.2V162.92ZM279.219 158.293L270.959 210.373L278.861 211.627L287.121 159.547L279.219 158.293ZM274.91 207H263.71V215H274.91V207ZM267.66 211.629L274.24 170.329L266.34 169.071L259.76 210.371L267.66 211.629ZM270.29 165.7H266.72V173.7H270.29V165.7ZM262.77 169.071L256.19 210.371L264.09 211.629L270.67 170.329L262.77 169.071ZM260.14 207H248.94V215H260.14V207ZM296.143 158.92L300.094 159.543L300.822 154.92H296.143V158.92ZM292.083 184.68L288.131 184.057L295.831 186.076L292.083 184.68ZM301.673 158.92V154.92H298.893L297.924 157.524L301.673 158.92ZM312.383 158.92L316.333 159.547L317.067 154.92H312.383V158.92ZM304.123 211V215H307.538L308.073 211.627L304.123 211ZM293.413 211L289.462 210.376L288.731 215H293.413V211ZM297.473 185.31L301.423 185.934L293.725 183.911L297.473 185.31ZM287.883 211V215H290.659L291.63 212.399L287.883 211ZM277.172 211L273.222 210.373L272.488 215H277.172V211ZM285.433 158.92V154.92H282.017L281.482 158.293L285.433 158.92ZM292.191 158.297L288.131 184.057L296.034 185.303L300.094 159.543L292.191 158.297ZM295.831 186.076L305.421 160.316L297.924 157.524L288.334 183.284L295.831 186.076ZM301.673 162.92H312.383V154.92H301.673V162.92ZM308.432 158.293L300.172 210.373L308.073 211.627L316.333 159.547L308.432 158.293ZM304.123 207H293.413V215H304.123V207ZM297.363 211.624L301.423 185.934L293.522 184.686L289.462 210.376L297.363 211.624ZM293.725 183.911L284.135 209.601L291.63 212.399L301.22 186.709L293.725 183.911ZM287.883 207H277.172V215H287.883V207ZM281.123 211.627L289.383 159.547L281.482 158.293L273.222 210.373L281.123 211.627ZM285.433 162.92H296.143V154.92H285.433V162.92ZM321.484 211L317.532 210.381L316.808 215H321.484V211ZM324.774 190L328.725 190.619L329.449 186H324.774V190ZM320.854 190V186H317.443L316.904 189.368L320.854 190ZM317.494 211V215H320.904L321.443 211.632L317.494 211ZM306.294 211L302.343 210.373L301.609 215H306.294V211ZM314.554 158.92V154.92H311.138L310.603 158.293L314.554 158.92ZM325.754 158.92L329.706 159.535L330.424 154.92H325.754V158.92ZM322.814 177.82L318.861 177.205L318.143 181.82H322.814V177.82ZM326.734 177.82V181.82H330.147L330.684 178.449L326.734 177.82ZM329.744 158.92V154.92H326.33L325.793 158.291L329.744 158.92ZM340.944 158.92L344.894 159.547L345.628 154.92H340.944V158.92ZM332.684 211V215H336.099L336.634 211.627L332.684 211ZM325.435 211.619L328.725 190.619L320.822 189.381L317.532 210.381L325.435 211.619ZM324.774 186H320.854V194H324.774V186ZM316.904 189.368L313.544 210.368L321.443 211.632L324.803 190.632L316.904 189.368ZM317.494 207H306.294V215H317.494V207ZM310.244 211.627L318.504 159.547L310.603 158.293L302.343 210.373L310.244 211.627ZM314.554 162.92H325.754V154.92H314.554V162.92ZM321.801 158.305L318.861 177.205L326.766 178.435L329.706 159.535L321.801 158.305ZM322.814 181.82H326.734V173.82H322.814V181.82ZM330.684 178.449L333.694 159.549L325.793 158.291L322.783 177.191L330.684 178.449ZM329.744 162.92H340.944V154.92H329.744V162.92ZM336.993 158.293L328.733 210.373L336.634 211.627L344.894 159.547L336.993 158.293ZM332.684 207H321.484V215H332.684V207ZM353.556 169.49L356.714 171.946L356.775 171.866L356.833 171.784L353.556 169.49ZM352.786 171.73L348.845 171.045L348.84 171.077L348.835 171.109L352.786 171.73ZM348.586 198.47L344.635 197.849L344.629 197.884L344.624 197.92L348.586 198.47ZM352.646 198.54L356.589 199.216L356.593 199.193L356.596 199.169L352.646 198.54ZM356.916 171.73L360.866 172.359L360.871 172.327L360.876 172.296L356.916 171.73ZM366.436 162.21L363.243 164.619L363.267 164.65L363.291 164.681L366.436 162.21ZM368.466 172.92L372.416 173.548L372.418 173.54L372.419 173.531L368.466 172.92ZM364.546 197.56L368.494 198.202L368.496 198.188L364.546 197.56ZM339.136 207.99L336.035 210.517L336.049 210.534L336.063 210.551L339.136 207.99ZM337.106 197.21L333.155 196.584L333.153 196.6L333.15 196.617L337.106 197.21ZM340.956 172.92L344.907 173.546L344.911 173.521L344.914 173.496L340.956 172.92ZM345.156 162L348.205 164.589L348.217 164.575L348.229 164.561L345.156 162ZM355.166 164.79C353.562 164.79 351.579 165.339 350.279 167.196L356.833 171.784C356.561 172.172 356.188 172.464 355.799 172.633C355.445 172.787 355.196 172.79 355.166 172.79V164.79ZM350.399 167.034C349.431 168.278 349.05 169.868 348.845 171.045L356.727 172.415C356.797 172.015 356.862 171.779 356.901 171.665C356.92 171.612 356.923 171.614 356.902 171.655C356.882 171.694 356.825 171.803 356.714 171.946L350.399 167.034ZM348.835 171.109L344.635 197.849L352.538 199.091L356.738 172.351L348.835 171.109ZM344.624 197.92C344.455 199.141 344.423 200.999 345.563 202.642C346.859 204.508 348.852 204.99 350.336 204.99V196.99C350.369 196.99 350.63 196.993 350.999 197.149C351.409 197.323 351.825 197.634 352.134 198.078C352.691 198.881 352.484 199.479 352.548 199.02L344.624 197.92ZM350.336 204.99C351.919 204.99 353.532 204.434 354.769 203.122C355.894 201.928 356.375 200.46 356.589 199.216L348.704 197.864C348.637 198.254 348.593 198.01 348.948 197.633C349.142 197.428 349.399 197.246 349.696 197.126C349.984 197.01 350.216 196.99 350.336 196.99V204.99ZM356.596 199.169L360.866 172.359L352.966 171.101L348.696 197.911L356.596 199.169ZM360.876 172.296C361.059 171.011 361.122 169.152 360.126 167.479C358.915 165.444 356.863 164.79 355.166 164.79V172.79C355.091 172.79 354.77 172.779 354.35 172.576C353.889 172.353 353.502 171.991 353.252 171.571C353.026 171.192 352.99 170.901 352.985 170.854C352.981 170.808 352.995 170.896 352.956 171.164L360.876 172.296ZM354.606 162.22H356.636V154.22H354.606V162.22ZM356.636 162.22C360.392 162.22 362.243 163.293 363.243 164.619L369.629 159.801C366.616 155.807 361.934 154.22 356.636 154.22V162.22ZM363.291 164.681C364.432 166.133 365.11 168.45 364.513 172.309L372.419 173.531C373.222 168.337 372.547 163.513 369.581 159.739L363.291 164.681ZM364.516 172.292L360.596 196.932L368.496 198.188L372.416 173.548L364.516 172.292ZM360.598 196.918C359.9 201.213 358.608 203.89 357.115 205.461C355.728 206.92 353.845 207.77 351.036 207.77V215.77C355.694 215.77 359.796 214.252 362.913 210.974C365.922 207.808 367.653 203.38 368.494 198.202L360.598 196.918ZM351.036 207.77H348.936V215.77H351.036V207.77ZM348.936 207.77C345.248 207.77 343.305 206.745 342.209 205.429L336.063 210.551C339.167 214.275 343.758 215.77 348.936 215.77V207.77ZM342.237 205.463C341.167 204.15 340.452 201.867 341.062 197.803L333.15 196.617C332.36 201.886 332.999 206.79 336.035 210.517L342.237 205.463ZM341.057 197.836L344.907 173.546L337.005 172.294L333.155 196.584L341.057 197.836ZM344.914 173.496C345.556 169.088 346.776 166.273 348.205 164.589L342.107 159.411C339.337 162.674 337.756 167.139 336.998 172.344L344.914 173.496ZM348.229 164.561C349.366 163.197 351.234 162.22 354.606 162.22V154.22C349.578 154.22 345.147 155.763 342.083 159.439L348.229 164.561ZM364.471 211L360.52 210.373L359.786 215H364.471V211ZM372.731 158.92V154.92H369.315L368.78 158.293L372.731 158.92ZM395.761 161.37L398.713 158.671L398.713 158.671L395.761 161.37ZM397.161 168.72L393.218 168.044L393.217 168.053L393.215 168.062L397.161 168.72ZM396.251 174.18L392.305 173.522L392.295 173.584L392.286 173.646L396.251 174.18ZM394.011 179.85L396.994 182.514L397.018 182.488L397.04 182.462L394.011 179.85ZM390.231 182.3L389.292 178.412L376.656 181.462L388.821 186.043L390.231 182.3ZM394.571 191.19L398.525 191.796L398.525 191.795L394.571 191.19ZM393.381 198.96L397.326 199.618L397.331 199.592L397.335 199.566L393.381 198.96ZM390.021 208.13L386.905 205.622L386.905 205.622L390.021 208.13ZM379.311 188.04V184.04H375.894L375.36 187.415L379.311 188.04ZM377.141 201.76L373.19 201.135L372.458 205.76H377.141V201.76ZM380.851 201.27L383.679 204.098L383.773 204.004L383.861 203.904L380.851 201.27ZM381.621 199.1L385.562 199.785L385.568 199.747L385.574 199.708L381.621 199.1ZM382.881 190.91L386.834 191.518L386.836 191.504L386.839 191.489L382.881 190.91ZM382.531 167.81V163.81H379.107L378.579 167.192L382.531 167.81ZM380.781 179.01L376.829 178.392L376.107 183.01H380.781V179.01ZM384.771 176.42L388.719 177.06L388.721 177.051L388.722 177.042L384.771 176.42ZM385.751 170.19L389.702 170.812L389.705 170.792L389.708 170.772L385.751 170.19ZM368.421 211.627L376.681 159.547L368.78 158.293L360.52 210.373L368.421 211.627ZM372.731 162.92H388.901V154.92H372.731V162.92ZM388.901 162.92C391.312 162.92 392.333 163.549 392.809 164.069L398.713 158.671C396.202 155.924 392.65 154.92 388.901 154.92V162.92ZM392.809 164.069C393.118 164.408 393.677 165.371 393.218 168.044L401.103 169.396C401.765 165.536 401.39 161.599 398.713 158.671L392.809 164.069ZM393.215 168.062L392.305 173.522L400.196 174.838L401.106 169.378L393.215 168.062ZM392.286 173.646C392.026 175.58 391.486 176.653 390.981 177.238L397.04 182.462C398.869 180.341 399.822 177.633 400.215 174.714L392.286 173.646ZM391.027 177.186C390.261 178.043 389.673 178.32 389.292 178.412L391.169 186.188C393.496 185.627 395.427 184.27 396.994 182.514L391.027 177.186ZM388.821 186.043C389.83 186.424 390.214 186.878 390.416 187.292C390.665 187.801 390.892 188.79 390.617 190.585L398.525 191.795C398.95 189.017 398.803 186.237 397.605 183.783C396.361 181.234 394.224 179.53 391.641 178.557L388.821 186.043ZM390.617 190.584L389.427 198.354L397.335 199.566L398.525 191.796L390.617 190.584ZM389.435 198.302C388.776 202.257 387.804 204.505 386.905 205.622L393.137 210.638C395.318 207.928 396.585 204.063 397.326 199.618L389.435 198.302ZM386.905 205.622C386.301 206.372 385.296 207 383.161 207V215C387.092 215 390.661 213.714 393.137 210.638L386.905 205.622ZM383.161 207H364.471V215H383.161V207ZM381.061 184.04H379.311V192.04H381.061V184.04ZM375.36 187.415L373.19 201.135L381.092 202.385L383.262 188.665L375.36 187.415ZM377.141 205.76H379.241V197.76H377.141V205.76ZM379.241 205.76C380.422 205.76 382.253 205.525 383.679 204.098L378.022 198.442C378.413 198.051 378.812 197.88 379.039 197.811C379.249 197.747 379.341 197.76 379.241 197.76V205.76ZM383.861 203.904C384.98 202.625 385.367 200.906 385.562 199.785L377.68 198.415C377.646 198.607 377.614 198.761 377.584 198.881C377.554 199.002 377.531 199.076 377.518 199.11C377.506 199.146 377.513 199.118 377.551 199.046C377.588 198.977 377.677 198.823 377.84 198.636L383.861 203.904ZM385.574 199.708L386.834 191.518L378.927 190.302L377.667 198.492L385.574 199.708ZM386.839 191.489C387.027 190.199 387.085 188.305 386.014 186.615C384.748 184.62 382.688 184.04 381.061 184.04V192.04C381.024 192.04 380.744 192.036 380.356 191.859C379.926 191.664 379.53 191.329 379.258 190.9C379.009 190.507 378.959 190.189 378.95 190.107C378.941 190.029 378.959 190.087 378.923 190.331L386.839 191.489ZM384.071 163.81H382.531V171.81H384.071V163.81ZM378.579 167.192L376.829 178.392L384.733 179.628L386.483 168.428L378.579 167.192ZM380.781 183.01H382.531V175.01H380.781V183.01ZM382.531 183.01C384.216 183.01 385.84 182.35 387.026 180.979C388.077 179.764 388.519 178.296 388.719 177.06L380.822 175.78C380.743 176.271 380.671 176.098 380.975 175.746C381.15 175.543 381.408 175.334 381.741 175.188C382.067 175.044 382.353 175.01 382.531 175.01V183.01ZM388.722 177.042L389.702 170.812L381.799 169.568L380.819 175.798L388.722 177.042ZM389.708 170.772C389.882 169.587 389.93 167.736 388.774 166.098C387.474 164.257 385.495 163.81 384.071 163.81V171.81C384.037 171.81 383.776 171.807 383.405 171.654C382.994 171.484 382.563 171.172 382.238 170.712C381.642 169.867 381.852 169.207 381.793 169.608L389.708 170.772Z" fill="white" mask="url(#path-1-outside-1_1_49)"/>
<path d="M5.148 262.364C6.43867 260.311 8.712 259.284 11.968 259.284C16.4267 259.284 19.492 261.176 21.164 264.96C22.0147 266.867 22.44 269.155 22.44 271.824C22.44 276.723 20.944 280.213 17.952 282.296C16.3093 283.44 14.3293 284.012 12.012 284.012C7.788 284.012 4.796 282.267 3.036 278.776C2.068 276.811 1.584 274.435 1.584 271.648C1.584 261.851 3.432 255.793 7.128 253.476C7.744 253.095 8.404 252.816 9.108 252.64L14.96 251.496C16.016 251.232 16.764 250.66 17.204 249.78C17.3507 249.487 17.424 249.193 17.424 248.9H20.68C20.68 250.66 20.4307 251.907 19.932 252.64C19.228 253.608 17.8493 254.341 15.796 254.84L9.856 256.116C8.15467 256.527 6.83467 257.773 5.896 259.856C5.544 260.648 5.29467 261.484 5.148 262.364ZM12.012 262.672C9.284 262.672 7.36267 264.021 6.248 266.72C5.69067 268.128 5.412 269.771 5.412 271.648C5.412 275.667 6.556 278.38 8.844 279.788C9.75333 280.345 10.8093 280.624 12.012 280.624C14.652 280.624 16.544 279.333 17.688 276.752C18.304 275.373 18.612 273.716 18.612 271.78C18.612 267.527 17.4093 264.725 15.004 263.376C14.124 262.907 13.1267 262.672 12.012 262.672ZM31.0492 259.944V283H27.3972V259.944H31.0492ZM31.0492 250.924V255.544H27.3532V250.924H31.0492ZM37.2831 292.592V259.944H40.6711V263.42C42.4018 260.663 44.8511 259.284 48.0191 259.284C51.7445 259.284 54.4871 260.912 56.2471 264.168C57.3618 266.251 57.9191 268.817 57.9191 271.868C57.9191 276.385 56.6138 279.744 54.0031 281.944C52.8591 282.912 51.5245 283.543 49.9991 283.836C49.3831 283.953 48.7378 284.012 48.0631 284.012C45.2178 284.012 42.8565 282.868 40.9791 280.58V292.592H37.2831ZM47.4031 262.716C44.9685 262.716 43.1791 263.948 42.0351 266.412C41.3311 267.879 40.9791 269.624 40.9791 271.648C40.9791 275.315 41.9911 277.911 44.0151 279.436C44.9831 280.199 46.1125 280.58 47.4031 280.58C49.8671 280.58 51.7151 279.392 52.9471 277.016C53.7098 275.549 54.0911 273.804 54.0911 271.78C54.0911 268.055 53.0498 265.415 50.9671 263.86C49.9405 263.097 48.7525 262.716 47.4031 262.716ZM66.1547 259.944V283H62.5027V259.944H66.1547ZM66.1547 250.924V255.544H62.4587V250.924H66.1547ZM72.3886 259.944H76.0846V269.404H87.0846V259.944H90.7806V283H87.0846V272.748H76.0846V283H72.3886V259.944ZM110.916 279.656H117.516V259.944H121.212V283H96.9238V259.944H100.62V279.656H107.22V259.944H110.916V279.656ZM130.909 259.944V283H127.257V259.944H130.909ZM130.909 250.924V255.544H127.213V250.924H130.909ZM150.137 280.184C152.337 279.949 153.525 274.449 153.701 263.684C153.73 262.54 153.745 261.293 153.745 259.944H168.661V280.184H171.477V288.28H168.397V283H150.709V288.28H147.629V280.184H150.137ZM155.241 279.656H164.965V263.288H157.397C157.455 269.184 157.162 273.452 156.517 276.092C156.194 277.5 155.769 278.688 155.241 279.656ZM195.349 272.704H178.365C178.395 274.816 178.805 276.459 179.597 277.632C180.859 279.627 182.707 280.624 185.141 280.624C188.133 280.624 190.143 279.084 191.169 276.004H194.865C194.22 279.553 192.372 281.959 189.321 283.22C188.031 283.748 186.593 284.012 185.009 284.012C181.02 284.012 178.101 282.399 176.253 279.172C175.109 277.177 174.537 274.713 174.537 271.78C174.537 267.145 175.916 263.699 178.673 261.44C180.433 260.003 182.575 259.284 185.097 259.284C188.471 259.284 191.111 260.487 193.017 262.892C193.604 263.625 194.073 264.447 194.425 265.356C195.041 266.969 195.349 269.419 195.349 272.704ZM178.453 269.712H191.389C191.419 269.653 191.433 269.565 191.433 269.448C191.433 267.101 190.568 265.268 188.837 263.948C187.723 263.097 186.461 262.672 185.053 262.672C182.56 262.672 180.712 263.772 179.509 265.972C178.923 267.028 178.571 268.275 178.453 269.712ZM200.307 259.944H218.655V283H214.959V263.288H204.003V283H200.307V259.944ZM233.687 259.284C238.145 259.284 241.211 261.176 242.883 264.96C243.733 266.867 244.159 269.155 244.159 271.824C244.159 276.723 242.663 280.213 239.671 282.296C238.028 283.44 236.048 284.012 233.731 284.012C229.507 284.012 226.515 282.267 224.755 278.776C223.787 276.811 223.303 274.435 223.303 271.648C223.303 266.544 224.843 262.965 227.923 260.912C229.536 259.827 231.457 259.284 233.687 259.284ZM233.731 262.672C231.003 262.672 229.081 264.021 227.967 266.72C227.409 268.128 227.131 269.771 227.131 271.648C227.131 275.667 228.275 278.38 230.563 279.788C231.472 280.345 232.528 280.624 233.731 280.624C236.371 280.624 238.263 279.333 239.407 276.752C240.023 275.373 240.331 273.716 240.331 271.78C240.331 267.527 239.128 264.725 236.723 263.376C235.843 262.907 234.845 262.672 233.731 262.672ZM254.616 273.276V269.932H257.344C259.368 269.932 260.703 269.125 261.348 267.512C261.524 267.072 261.612 266.617 261.612 266.148C261.612 264.593 260.732 263.537 258.972 262.98C258.297 262.775 257.549 262.672 256.728 262.672C253.736 262.672 252.196 263.904 252.108 266.368H248.236C248.265 262.877 249.908 260.663 253.164 259.724C254.161 259.431 255.305 259.284 256.596 259.284C260.175 259.284 262.741 260.355 264.296 262.496C265.059 263.581 265.44 264.857 265.44 266.324C265.44 268.407 264.604 269.976 262.932 271.032C262.815 271.12 262.697 271.193 262.58 271.252C265.015 272.543 266.276 274.361 266.364 276.708C266.364 279.524 265.044 281.577 262.404 282.868C260.879 283.631 259.031 284.012 256.86 284.012C251.169 284.012 248.119 281.636 247.708 276.884C247.679 276.649 247.664 276.4 247.664 276.136H251.536C251.712 277.515 252.064 278.497 252.592 279.084C253.56 280.111 255.085 280.624 257.168 280.624C259.661 280.624 261.289 279.891 262.052 278.424C262.257 277.984 262.36 277.515 262.36 277.016C262.36 275.931 261.788 274.977 260.644 274.156C259.823 273.569 258.899 273.276 257.872 273.276H254.616ZM271.248 259.944H274.944V278.116L285.284 259.944H290.036V283H286.384V264.828L276.044 283H271.248V259.944ZM295.773 259.944H312.141V263.288H305.805V283H302.109V263.288H295.773V259.944ZM344.279 259.944H348.239L337.987 287.84C337.342 289.512 336.506 290.729 335.479 291.492C334.482 292.225 333.338 292.592 332.047 292.592C331.138 292.592 330.316 292.401 329.583 292.02V288.72C330.375 288.896 331.02 288.984 331.519 288.984C332.839 288.984 333.763 288.397 334.291 287.224C334.35 287.077 334.408 286.916 334.467 286.74L335.875 283.088L328.087 259.944H332.003L337.899 277.896L344.279 259.944ZM366.279 279.656H372.879V259.944H376.575V283H352.287V259.944H355.983V279.656H362.583V259.944H366.279V279.656ZM386.272 259.944V283H382.62V259.944H386.272ZM386.272 250.924V255.544H382.576V250.924H386.272ZM392.506 259.944H396.202V269.404H407.202V259.944H410.898V283H407.202V272.748H396.202V283H392.506V259.944Z" fill="white"/>
<defs>
<linearGradient id="paint0_linear_1_49" x1="208" y1="0" x2="208" y2="270.4" gradientUnits="userSpaceOnUse">
<stop stop-color="#FF005C"/>
<stop offset="0.475" stop-color="#F20C5F"/>
<stop offset="1" stop-color="#DD1F64"/>
</linearGradient>
</defs>
</svg>
